%TF.GenerationSoftware,KiCad,Pcbnew,4.0.7-e2-6376~60~ubuntu17.10.1*%
%TF.CreationDate,2017-11-05T00:08:28+01:00*%
%TF.ProjectId,blinker,626C696E6B65722E6B696361645F7063,rev?*%
%TF.FileFunction,Copper,L1,Top,Signal*%
%FSLAX46Y46*%
G04 Gerber Fmt 4.6, Leading zero omitted, Abs format (unit mm)*
G04 Created by KiCad (PCBNEW 4.0.7-e2-6376~60~ubuntu17.10.1) date Sun Nov  5 00:08:28 2017*
%MOMM*%
%LPD*%
G01*
G04 APERTURE LIST*
%ADD10C,0.127000*%
%ADD11C,2.200000*%
%ADD12R,1.100000X1.500000*%
%ADD13R,2.200000X3.000000*%
%ADD14R,0.900000X0.800000*%
%ADD15R,1.300000X0.700000*%
%ADD16R,0.700000X1.300000*%
%ADD17C,0.685800*%
%ADD18C,0.200000*%
%ADD19C,0.254000*%
G04 APERTURE END LIST*
D10*
D11*
X12827000Y-3810000D03*
X-12827000Y1270000D03*
D10*
G36*
X-7828734Y-4151538D02*
X-8911266Y-3526538D01*
X-8411266Y-2660512D01*
X-7328734Y-3285512D01*
X-7828734Y-4151538D01*
X-7828734Y-4151538D01*
G37*
G36*
X-6828734Y-2419488D02*
X-7911266Y-1794488D01*
X-7411266Y-928462D01*
X-6328734Y-1553462D01*
X-6828734Y-2419488D01*
X-6828734Y-2419488D01*
G37*
D11*
X12573000Y-1270000D03*
X-12827000Y-3810000D03*
D12*
X-750000Y-1500000D03*
D13*
X-1300000Y-1500000D03*
D12*
X-750000Y1500000D03*
X750000Y1500000D03*
X750000Y-1500000D03*
D10*
G36*
X-8698320Y-10727115D02*
X-9261236Y-10402115D01*
X-8411236Y-8929871D01*
X-7848320Y-9254871D01*
X-8698320Y-10727115D01*
X-8698320Y-10727115D01*
G37*
G36*
X-7598468Y-11362115D02*
X-8161384Y-11037115D01*
X-7311384Y-9564871D01*
X-6748468Y-9889871D01*
X-7598468Y-11362115D01*
X-7598468Y-11362115D01*
G37*
G36*
X-6498616Y-11997115D02*
X-7061532Y-11672115D01*
X-6211532Y-10199871D01*
X-5648616Y-10524871D01*
X-6498616Y-11997115D01*
X-6498616Y-11997115D01*
G37*
G36*
X-5398764Y-12632115D02*
X-5961680Y-12307115D01*
X-5111680Y-10834871D01*
X-4548764Y-11159871D01*
X-5398764Y-12632115D01*
X-5398764Y-12632115D01*
G37*
G36*
X-1748764Y-6310129D02*
X-2311680Y-5985129D01*
X-1461680Y-4512885D01*
X-898764Y-4837885D01*
X-1748764Y-6310129D01*
X-1748764Y-6310129D01*
G37*
G36*
X-2848616Y-5675129D02*
X-3411532Y-5350129D01*
X-2561532Y-3877885D01*
X-1998616Y-4202885D01*
X-2848616Y-5675129D01*
X-2848616Y-5675129D01*
G37*
G36*
X-3948468Y-5040129D02*
X-4511384Y-4715129D01*
X-3661384Y-3242885D01*
X-3098468Y-3567885D01*
X-3948468Y-5040129D01*
X-3948468Y-5040129D01*
G37*
G36*
X-5048320Y-4405129D02*
X-5611236Y-4080129D01*
X-4761236Y-2607885D01*
X-4198320Y-2932885D01*
X-5048320Y-4405129D01*
X-5048320Y-4405129D01*
G37*
D14*
X6080000Y4130000D03*
X6080000Y6030000D03*
X4080000Y5080000D03*
X-1000000Y8570000D03*
X-1000000Y6670000D03*
X1000000Y7620000D03*
X5990000Y-2860000D03*
X5990000Y-4760000D03*
X7990000Y-3810000D03*
D15*
X8255000Y4130000D03*
X8255000Y6030000D03*
X-3175000Y8570000D03*
X-3175000Y6670000D03*
X3810000Y-2860000D03*
X3810000Y-4760000D03*
D16*
X4130000Y1905000D03*
X6030000Y1905000D03*
X-950000Y4445000D03*
X950000Y4445000D03*
X7935000Y-635000D03*
X6035000Y-635000D03*
D10*
G36*
X-9612083Y-7165833D02*
X-10737917Y-6515833D01*
X-10387917Y-5909615D01*
X-9262083Y-6559615D01*
X-9612083Y-7165833D01*
X-9612083Y-7165833D01*
G37*
G36*
X-8662083Y-5520385D02*
X-9787917Y-4870385D01*
X-9437917Y-4264167D01*
X-8312083Y-4914167D01*
X-8662083Y-5520385D01*
X-8662083Y-5520385D01*
G37*
D11*
X-12573000Y-1270000D03*
X-12573000Y3810000D03*
X12827000Y1270000D03*
X12573000Y3810000D03*
D17*
X-6500000Y-9000000D03*
X-3648271Y-2250000D03*
X-2500000Y1907091D03*
X3250000Y-750000D03*
X2000000Y1750000D03*
X3004999Y954999D03*
X-10000000Y-2750000D03*
X-4095130Y-5707580D03*
D18*
X3810000Y-4760000D02*
X-953715Y-4760000D01*
X-953715Y-4760000D02*
X-1605222Y-5411507D01*
X12827000Y-3810000D02*
X11271366Y-3810000D01*
X11271366Y-3810000D02*
X10571365Y-4510001D01*
X10571365Y-4510001D02*
X7227203Y-4510001D01*
X7227203Y-4510001D02*
X6723201Y-4005999D01*
X6723201Y-4005999D02*
X4864001Y-4005999D01*
X4864001Y-4005999D02*
X4110000Y-4760000D01*
X4110000Y-4760000D02*
X3810000Y-4760000D01*
X-6500000Y-9000000D02*
X-6500000Y-9508567D01*
X-6500000Y-9508567D02*
X-7454926Y-10463493D01*
D19*
X-4904778Y-3506507D02*
X-3648271Y-2250000D01*
X-3648271Y-2250000D02*
X-2898271Y-1500000D01*
X9636999Y873999D02*
X11473001Y2710001D01*
X5858197Y873999D02*
X9636999Y873999D01*
X5215296Y231098D02*
X5858197Y873999D01*
X3161350Y231098D02*
X5215296Y231098D01*
X1699242Y-1231010D02*
X3161350Y231098D01*
X-168999Y-2631001D02*
X1604801Y-2631001D01*
X1699242Y-2536560D02*
X1699242Y-1231010D01*
X-1300000Y-1500000D02*
X-168999Y-2631001D01*
X1604801Y-2631001D02*
X1699242Y-2536560D01*
X11473001Y2710001D02*
X12573000Y3810000D01*
X-2898271Y-1500000D02*
X-1300000Y-1500000D01*
X-4904778Y-3506507D02*
X-8019518Y-3506507D01*
X-8019518Y-3506507D02*
X-8120000Y-3406025D01*
X-8120000Y-3406025D02*
X-8120000Y-3962276D01*
X-8120000Y-3962276D02*
X-9050000Y-4892276D01*
D18*
X-3175000Y6670000D02*
X-2875000Y6670000D01*
X-2875000Y6670000D02*
X-1675001Y7869999D01*
X-1675001Y7869999D02*
X-140003Y7869999D01*
X-140003Y7869999D02*
X309999Y8320001D01*
X14227001Y384001D02*
X13672999Y-170001D01*
X309999Y8320001D02*
X10214921Y8320001D01*
X10214921Y8320001D02*
X14227001Y4307921D01*
X14227001Y4307921D02*
X14227001Y384001D01*
X13672999Y-170001D02*
X12573000Y-1270000D01*
X-2012121Y-4083554D02*
X-2705074Y-4776507D01*
X-1488568Y-3560001D02*
X-2012121Y-4083554D01*
X7284999Y255001D02*
X7284999Y-2899301D01*
X7284999Y-2899301D02*
X6624299Y-3560001D01*
X7344999Y315001D02*
X7284999Y255001D01*
X6624299Y-3560001D02*
X-1488568Y-3560001D01*
X10987999Y315001D02*
X7344999Y315001D01*
X12573000Y-1270000D02*
X10987999Y315001D01*
X-2092909Y1500000D02*
X-2157101Y1564192D01*
X-2157101Y1564192D02*
X-2500000Y1907091D01*
X-750000Y1500000D02*
X-2092909Y1500000D01*
X6035000Y-635000D02*
X3365000Y-635000D01*
X3365000Y-635000D02*
X3250000Y-750000D01*
X2000000Y1750000D02*
X1000000Y1750000D01*
X1000000Y1750000D02*
X750000Y1500000D01*
X950000Y4445000D02*
X950000Y1700000D01*
X950000Y1700000D02*
X750000Y1500000D01*
X750000Y-1300000D02*
X750000Y-1500000D01*
X6030000Y1905000D02*
X5079999Y954999D01*
X5079999Y954999D02*
X3004999Y954999D01*
X3004999Y954999D02*
X750000Y-1300000D01*
X-10000000Y-2750000D02*
X-10342899Y-3092899D01*
X-10342899Y-3092899D02*
X-10342899Y-5690680D01*
X-10342899Y-5690680D02*
X-10000000Y-6033579D01*
X-10000000Y-6033579D02*
X-10000000Y-6537724D01*
X-8554778Y-9828493D02*
X-8554778Y-7982946D01*
X-8554778Y-7982946D02*
X-10000000Y-6537724D01*
X8255000Y6030000D02*
X7955000Y6030000D01*
X299999Y4299999D02*
X-299999Y3700001D01*
X-299999Y3700001D02*
X-299999Y3554999D01*
X7955000Y6030000D02*
X6755001Y4830001D01*
X6755001Y4830001D02*
X5720001Y4830001D01*
X359999Y5395001D02*
X299999Y5335001D01*
X5720001Y4830001D02*
X4770001Y5780001D01*
X4770001Y5780001D02*
X780001Y5780001D01*
X780001Y5780001D02*
X500000Y5500000D01*
X500000Y5500000D02*
X500000Y5395001D01*
X-505001Y3494999D02*
X-1449999Y2550001D01*
X-299999Y3554999D02*
X-359999Y3494999D01*
X500000Y5395001D02*
X359999Y5395001D01*
X-1449999Y2550001D02*
X-6352997Y2550001D01*
X-359999Y3494999D02*
X-505001Y3494999D01*
X299999Y5335001D02*
X299999Y4299999D01*
X-6352997Y2550001D02*
X-11372999Y-2470001D01*
X-12573000Y-1270000D02*
X-11372999Y-2470001D01*
X-11372999Y-8714632D02*
X-8296185Y-11791446D01*
X-11372999Y-2470001D02*
X-11372999Y-8714632D01*
X-8296185Y-11791446D02*
X-7048027Y-11791446D01*
X-7048027Y-11791446D02*
X-6355074Y-11098493D01*
X-3804926Y-4141507D02*
X-3804926Y-5417376D01*
X-3804926Y-5417376D02*
X-4095130Y-5707580D01*
X8255000Y4130000D02*
X6080000Y4130000D01*
X4080000Y5080000D02*
X4080000Y1955000D01*
X4080000Y1955000D02*
X4130000Y1905000D01*
X-1000000Y8570000D02*
X-1650000Y8570000D01*
X-1650000Y8570000D02*
X-3175000Y8570000D01*
X1000000Y7245000D02*
X1000000Y7620000D01*
X-950000Y5295000D02*
X1000000Y7245000D01*
X-950000Y4445000D02*
X-950000Y5295000D01*
X3810000Y-2860000D02*
X5990000Y-2860000D01*
X7990000Y-690000D02*
X7935000Y-635000D01*
X7990000Y-3810000D02*
X7990000Y-690000D01*
D19*
G36*
X13180648Y9499137D02*
X14812100Y6658536D01*
X14812100Y-6658536D01*
X13180648Y-9499137D01*
X6269148Y-13486541D01*
X3214641Y-9821132D01*
X3197566Y-9802434D01*
X2197566Y-8802434D01*
X2108702Y-8742613D01*
X2000000Y-8720600D01*
X-2000000Y-8720600D01*
X-2105136Y-8741136D01*
X-2197566Y-8802434D01*
X-3197566Y-9802434D01*
X-3214641Y-9821132D01*
X-4027313Y-10796338D01*
X-4121876Y-10673100D01*
X-4265256Y-10590320D01*
X-4482112Y-10648427D01*
X-5081737Y-11687008D01*
X-5064416Y-11697008D01*
X-5191416Y-11916978D01*
X-5208737Y-11906978D01*
X-5785880Y-12906618D01*
X-6269148Y-13486541D01*
X-7326264Y-12876666D01*
X-6245189Y-12876666D01*
X-6169793Y-12920195D01*
X-6245188Y-12876666D01*
X-6245189Y-12876666D01*
X-7326264Y-12876666D01*
X-13180648Y-9499137D01*
X-14812100Y-6658536D01*
X-14812100Y-3521593D01*
X-14572323Y-3521593D01*
X-14549836Y-4211453D01*
X-14329099Y-4744359D01*
X-14051868Y-4855263D01*
X-13006605Y-3810000D01*
X-14051868Y-2764737D01*
X-14329099Y-2875641D01*
X-14572323Y-3521593D01*
X-14812100Y-3521593D01*
X-14812100Y987397D01*
X-14254248Y987397D01*
X-14037457Y462725D01*
X-13636386Y60953D01*
X-13363195Y-52486D01*
X-13380275Y-59543D01*
X-13782047Y-460614D01*
X-13999752Y-984907D01*
X-14000248Y-1552603D01*
X-13783457Y-2077275D01*
X-13614117Y-2246911D01*
X-13761359Y-2307901D01*
X-13872263Y-2585132D01*
X-12827000Y-3630395D01*
X-12812858Y-3616253D01*
X-12633253Y-3795858D01*
X-12647395Y-3810000D01*
X-12633253Y-3824143D01*
X-12812858Y-4003748D01*
X-12827000Y-3989605D01*
X-13872263Y-5034868D01*
X-13761359Y-5312099D01*
X-13115407Y-5555323D01*
X-12425547Y-5532836D01*
X-11892641Y-5312099D01*
X-11799999Y-5080518D01*
X-11799999Y-8714627D01*
X-11800000Y-8714632D01*
X-11767496Y-8878038D01*
X-11674934Y-9016567D01*
X-8598120Y-12093381D01*
X-8459591Y-12185943D01*
X-8296185Y-12218447D01*
X-8296180Y-12218446D01*
X-7048032Y-12218446D01*
X-7048027Y-12218447D01*
X-6884621Y-12185943D01*
X-6863181Y-12171617D01*
X-6665319Y-12285853D01*
X-6602274Y-12307985D01*
X-6607734Y-12349459D01*
X-6542352Y-12593470D01*
X-6388568Y-12793886D01*
X-6245188Y-12876666D01*
X-6028332Y-12818559D01*
X-5428707Y-11779978D01*
X-5446028Y-11769978D01*
X-5319028Y-11550008D01*
X-5301707Y-11560008D01*
X-4716726Y-10546791D01*
X-4340651Y-10546791D01*
X-4265256Y-10590320D01*
X-4265255Y-10590320D01*
X-4340651Y-10546791D01*
X-4716726Y-10546791D01*
X-4702082Y-10521427D01*
X-4760189Y-10304570D01*
X-4903568Y-10221790D01*
X-5154025Y-10188817D01*
X-5398036Y-10254200D01*
X-5431969Y-10280238D01*
X-5481913Y-10236133D01*
X-6044829Y-9911133D01*
X-6161174Y-9870290D01*
X-6262752Y-9875188D01*
X-6198068Y-9810504D01*
X-6198065Y-9810502D01*
X-6105503Y-9671973D01*
X-6075912Y-9523208D01*
X-5932418Y-9379963D01*
X-5830217Y-9133836D01*
X-5829984Y-8867333D01*
X-5931755Y-8621028D01*
X-6120037Y-8432418D01*
X-6366164Y-8330217D01*
X-6632667Y-8329984D01*
X-6878972Y-8431755D01*
X-7067582Y-8620037D01*
X-7169783Y-8866164D01*
X-7170016Y-9132667D01*
X-7100103Y-9301870D01*
X-7144681Y-9276133D01*
X-7261026Y-9235290D01*
X-7393219Y-9241664D01*
X-7512517Y-9298967D01*
X-7519196Y-9306530D01*
X-7518739Y-9305229D01*
X-7525113Y-9173037D01*
X-7582415Y-9053738D01*
X-7681617Y-8966133D01*
X-8127778Y-8708542D01*
X-8127778Y-7982951D01*
X-8127777Y-7982946D01*
X-8160281Y-7819540D01*
X-8252843Y-7681011D01*
X-8252846Y-7681009D01*
X-9059065Y-6874789D01*
X-8973345Y-6726318D01*
X-8932502Y-6609973D01*
X-8938876Y-6477780D01*
X-8996179Y-6358482D01*
X-9095380Y-6270877D01*
X-9581642Y-5990134D01*
X-9605503Y-5870173D01*
X-9698065Y-5731644D01*
X-9698068Y-5731642D01*
X-9915899Y-5513810D01*
X-9915899Y-5245054D01*
X-8856315Y-5856805D01*
X-8720757Y-5904392D01*
X-8566734Y-5896966D01*
X-8427736Y-5830200D01*
X-8325663Y-5714617D01*
X-7975663Y-5108399D01*
X-7928076Y-4972841D01*
X-7935502Y-4818818D01*
X-8002268Y-4679819D01*
X-8064322Y-4625019D01*
X-7952128Y-4512825D01*
X-7887408Y-4535545D01*
X-7733385Y-4528119D01*
X-7594386Y-4461353D01*
X-7492314Y-4345770D01*
X-7301059Y-4014507D01*
X-5992804Y-4014507D01*
X-5995243Y-4021454D01*
X-5987817Y-4175477D01*
X-5921051Y-4314476D01*
X-5805468Y-4416549D01*
X-5242552Y-4741549D01*
X-5106994Y-4789136D01*
X-4952971Y-4781710D01*
X-4837990Y-4726480D01*
X-4834591Y-4796963D01*
X-4777289Y-4916262D01*
X-4678087Y-5003867D01*
X-4456236Y-5131953D01*
X-4474102Y-5139335D01*
X-4662712Y-5327617D01*
X-4764913Y-5573744D01*
X-4765146Y-5840247D01*
X-4663375Y-6086552D01*
X-4475093Y-6275162D01*
X-4228966Y-6377363D01*
X-3962463Y-6377596D01*
X-3716158Y-6275825D01*
X-3527548Y-6087543D01*
X-3425347Y-5841416D01*
X-3425247Y-5727195D01*
X-3015319Y-5963867D01*
X-2898974Y-6004710D01*
X-2766781Y-5998336D01*
X-2647483Y-5941033D01*
X-2640804Y-5933470D01*
X-2641261Y-5934771D01*
X-2634887Y-6066963D01*
X-2577585Y-6186262D01*
X-2478383Y-6273867D01*
X-1915467Y-6598867D01*
X-1799122Y-6639710D01*
X-1666929Y-6633336D01*
X-1547631Y-6576033D01*
X-1460026Y-6476832D01*
X-715342Y-5187000D01*
X2841082Y-5187000D01*
X2849395Y-5231179D01*
X2921012Y-5342474D01*
X3030286Y-5417138D01*
X3160000Y-5443406D01*
X4460000Y-5443406D01*
X4581179Y-5420605D01*
X4692474Y-5348988D01*
X4767138Y-5239714D01*
X4793406Y-5110000D01*
X4793406Y-5045750D01*
X4905000Y-5045750D01*
X4905000Y-5286310D01*
X5001673Y-5519699D01*
X5180302Y-5698327D01*
X5413691Y-5795000D01*
X5704250Y-5795000D01*
X5863000Y-5636250D01*
X5863000Y-4887000D01*
X5063750Y-4887000D01*
X4905000Y-5045750D01*
X4793406Y-5045750D01*
X4793406Y-4680463D01*
X4952310Y-4521560D01*
X5063750Y-4633000D01*
X5863000Y-4633000D01*
X5863000Y-4613000D01*
X6117000Y-4613000D01*
X6117000Y-4633000D01*
X6137000Y-4633000D01*
X6137000Y-4887000D01*
X6117000Y-4887000D01*
X6117000Y-5636250D01*
X6275750Y-5795000D01*
X6566309Y-5795000D01*
X6799698Y-5698327D01*
X6978327Y-5519699D01*
X7075000Y-5286310D01*
X7075000Y-5045750D01*
X6916252Y-4887002D01*
X7037612Y-4887002D01*
X7063797Y-4904498D01*
X7227203Y-4937001D01*
X10571360Y-4937001D01*
X10571365Y-4937002D01*
X10734771Y-4904498D01*
X10873300Y-4811936D01*
X11448236Y-4237000D01*
X11459416Y-4237000D01*
X11616543Y-4617275D01*
X12017614Y-5019047D01*
X12541907Y-5236752D01*
X13109603Y-5237248D01*
X13634275Y-5020457D01*
X14036047Y-4619386D01*
X14253752Y-4095093D01*
X14254248Y-3527397D01*
X14037457Y-3002725D01*
X13636386Y-2600953D01*
X13363195Y-2487514D01*
X13380275Y-2480457D01*
X13782047Y-2079386D01*
X13999752Y-1555093D01*
X14000248Y-987397D01*
X13842134Y-604735D01*
X13974931Y-471938D01*
X13974934Y-471936D01*
X14528933Y82064D01*
X14528936Y82066D01*
X14621498Y220595D01*
X14654001Y384001D01*
X14654001Y4307916D01*
X14654002Y4307921D01*
X14621498Y4471327D01*
X14528936Y4609856D01*
X10516856Y8621936D01*
X10378327Y8714498D01*
X10214921Y8747002D01*
X10214916Y8747001D01*
X310004Y8747001D01*
X309999Y8747002D01*
X146593Y8714498D01*
X8064Y8621936D01*
X-216594Y8397278D01*
X-216594Y8970000D01*
X-239395Y9091179D01*
X-311012Y9202474D01*
X-420286Y9277138D01*
X-550000Y9303406D01*
X-1450000Y9303406D01*
X-1571179Y9280605D01*
X-1682474Y9208988D01*
X-1757138Y9099714D01*
X-1777938Y8997000D01*
X-2206082Y8997000D01*
X-2214395Y9041179D01*
X-2286012Y9152474D01*
X-2395286Y9227138D01*
X-2525000Y9253406D01*
X-3825000Y9253406D01*
X-3946179Y9230605D01*
X-4057474Y9158988D01*
X-4132138Y9049714D01*
X-4158406Y8920000D01*
X-4158406Y8220000D01*
X-4135605Y8098821D01*
X-4063988Y7987526D01*
X-3954714Y7912862D01*
X-3825000Y7886594D01*
X-2525000Y7886594D01*
X-2403821Y7909395D01*
X-2292526Y7981012D01*
X-2217862Y8090286D01*
X-2207187Y8143000D01*
X-2005869Y8143000D01*
X-2795464Y7353406D01*
X-3825000Y7353406D01*
X-3946179Y7330605D01*
X-4057474Y7258988D01*
X-4132138Y7149714D01*
X-4158406Y7020000D01*
X-4158406Y6320000D01*
X-4135605Y6198821D01*
X-4063988Y6087526D01*
X-3954714Y6012862D01*
X-3825000Y5986594D01*
X-2525000Y5986594D01*
X-2403821Y6009395D01*
X-2292526Y6081012D01*
X-2217862Y6190286D01*
X-2191594Y6320000D01*
X-2191594Y6749536D01*
X-2035190Y6905940D01*
X-1926250Y6797000D01*
X-1127000Y6797000D01*
X-1127000Y6817000D01*
X-873000Y6817000D01*
X-873000Y6797000D01*
X-853000Y6797000D01*
X-853000Y6543000D01*
X-873000Y6543000D01*
X-873000Y6523000D01*
X-1127000Y6523000D01*
X-1127000Y6543000D01*
X-1926250Y6543000D01*
X-2085000Y6384250D01*
X-2085000Y6143690D01*
X-1988327Y5910301D01*
X-1809698Y5731673D01*
X-1576309Y5635000D01*
X-1285750Y5635000D01*
X-1127002Y5793748D01*
X-1127002Y5721868D01*
X-1251935Y5596935D01*
X-1344497Y5458406D01*
X-1352427Y5418541D01*
X-1421179Y5405605D01*
X-1532474Y5333988D01*
X-1607138Y5224714D01*
X-1633406Y5095000D01*
X-1633406Y3795000D01*
X-1610605Y3673821D01*
X-1538988Y3562526D01*
X-1429714Y3487862D01*
X-1300000Y3461594D01*
X-1142276Y3461594D01*
X-1626869Y2977001D01*
X-6352992Y2977001D01*
X-6352997Y2977002D01*
X-6516403Y2944498D01*
X-6654932Y2851936D01*
X-11206099Y-1699231D01*
X-11146248Y-1555093D01*
X-11145752Y-987397D01*
X-11362543Y-462725D01*
X-11763614Y-60953D01*
X-12036805Y52486D01*
X-12019725Y59543D01*
X-11617953Y460614D01*
X-11400248Y984907D01*
X-11399752Y1552603D01*
X-11616543Y2077275D01*
X-12017614Y2479047D01*
X-12037431Y2487276D01*
X-11765725Y2599543D01*
X-11363953Y3000614D01*
X-11146248Y3524907D01*
X-11145752Y4092603D01*
X-11362543Y4617275D01*
X-11763614Y5019047D01*
X-12287907Y5236752D01*
X-12855603Y5237248D01*
X-13380275Y5020457D01*
X-13782047Y4619386D01*
X-13999752Y4095093D01*
X-14000248Y3527397D01*
X-13783457Y3002725D01*
X-13382386Y2600953D01*
X-13362569Y2592724D01*
X-13634275Y2480457D01*
X-14036047Y2079386D01*
X-14253752Y1555093D01*
X-14254248Y987397D01*
X-14812100Y987397D01*
X-14812100Y6658536D01*
X-13180648Y9499137D01*
X-7632486Y12700000D01*
X-2345398Y12700000D01*
X-2166865Y11802455D01*
X-1658447Y11041553D01*
X-897545Y10533135D01*
X0Y10354602D01*
X897545Y10533135D01*
X1658447Y11041553D01*
X2166865Y11802455D01*
X2345398Y12700000D01*
X2166865Y13597545D01*
X1658447Y14358447D01*
X897545Y14866865D01*
X0Y15045398D01*
X-897545Y14866865D01*
X-1658447Y14358447D01*
X-2166865Y13597545D01*
X-2345398Y12700000D01*
X-7632486Y12700000D01*
X-1640179Y16157100D01*
X1640179Y16157100D01*
X13180648Y9499137D01*
X13180648Y9499137D01*
G37*
X13180648Y9499137D02*
X14812100Y6658536D01*
X14812100Y-6658536D01*
X13180648Y-9499137D01*
X6269148Y-13486541D01*
X3214641Y-9821132D01*
X3197566Y-9802434D01*
X2197566Y-8802434D01*
X2108702Y-8742613D01*
X2000000Y-8720600D01*
X-2000000Y-8720600D01*
X-2105136Y-8741136D01*
X-2197566Y-8802434D01*
X-3197566Y-9802434D01*
X-3214641Y-9821132D01*
X-4027313Y-10796338D01*
X-4121876Y-10673100D01*
X-4265256Y-10590320D01*
X-4482112Y-10648427D01*
X-5081737Y-11687008D01*
X-5064416Y-11697008D01*
X-5191416Y-11916978D01*
X-5208737Y-11906978D01*
X-5785880Y-12906618D01*
X-6269148Y-13486541D01*
X-7326264Y-12876666D01*
X-6245189Y-12876666D01*
X-6169793Y-12920195D01*
X-6245188Y-12876666D01*
X-6245189Y-12876666D01*
X-7326264Y-12876666D01*
X-13180648Y-9499137D01*
X-14812100Y-6658536D01*
X-14812100Y-3521593D01*
X-14572323Y-3521593D01*
X-14549836Y-4211453D01*
X-14329099Y-4744359D01*
X-14051868Y-4855263D01*
X-13006605Y-3810000D01*
X-14051868Y-2764737D01*
X-14329099Y-2875641D01*
X-14572323Y-3521593D01*
X-14812100Y-3521593D01*
X-14812100Y987397D01*
X-14254248Y987397D01*
X-14037457Y462725D01*
X-13636386Y60953D01*
X-13363195Y-52486D01*
X-13380275Y-59543D01*
X-13782047Y-460614D01*
X-13999752Y-984907D01*
X-14000248Y-1552603D01*
X-13783457Y-2077275D01*
X-13614117Y-2246911D01*
X-13761359Y-2307901D01*
X-13872263Y-2585132D01*
X-12827000Y-3630395D01*
X-12812858Y-3616253D01*
X-12633253Y-3795858D01*
X-12647395Y-3810000D01*
X-12633253Y-3824143D01*
X-12812858Y-4003748D01*
X-12827000Y-3989605D01*
X-13872263Y-5034868D01*
X-13761359Y-5312099D01*
X-13115407Y-5555323D01*
X-12425547Y-5532836D01*
X-11892641Y-5312099D01*
X-11799999Y-5080518D01*
X-11799999Y-8714627D01*
X-11800000Y-8714632D01*
X-11767496Y-8878038D01*
X-11674934Y-9016567D01*
X-8598120Y-12093381D01*
X-8459591Y-12185943D01*
X-8296185Y-12218447D01*
X-8296180Y-12218446D01*
X-7048032Y-12218446D01*
X-7048027Y-12218447D01*
X-6884621Y-12185943D01*
X-6863181Y-12171617D01*
X-6665319Y-12285853D01*
X-6602274Y-12307985D01*
X-6607734Y-12349459D01*
X-6542352Y-12593470D01*
X-6388568Y-12793886D01*
X-6245188Y-12876666D01*
X-6028332Y-12818559D01*
X-5428707Y-11779978D01*
X-5446028Y-11769978D01*
X-5319028Y-11550008D01*
X-5301707Y-11560008D01*
X-4716726Y-10546791D01*
X-4340651Y-10546791D01*
X-4265256Y-10590320D01*
X-4265255Y-10590320D01*
X-4340651Y-10546791D01*
X-4716726Y-10546791D01*
X-4702082Y-10521427D01*
X-4760189Y-10304570D01*
X-4903568Y-10221790D01*
X-5154025Y-10188817D01*
X-5398036Y-10254200D01*
X-5431969Y-10280238D01*
X-5481913Y-10236133D01*
X-6044829Y-9911133D01*
X-6161174Y-9870290D01*
X-6262752Y-9875188D01*
X-6198068Y-9810504D01*
X-6198065Y-9810502D01*
X-6105503Y-9671973D01*
X-6075912Y-9523208D01*
X-5932418Y-9379963D01*
X-5830217Y-9133836D01*
X-5829984Y-8867333D01*
X-5931755Y-8621028D01*
X-6120037Y-8432418D01*
X-6366164Y-8330217D01*
X-6632667Y-8329984D01*
X-6878972Y-8431755D01*
X-7067582Y-8620037D01*
X-7169783Y-8866164D01*
X-7170016Y-9132667D01*
X-7100103Y-9301870D01*
X-7144681Y-9276133D01*
X-7261026Y-9235290D01*
X-7393219Y-9241664D01*
X-7512517Y-9298967D01*
X-7519196Y-9306530D01*
X-7518739Y-9305229D01*
X-7525113Y-9173037D01*
X-7582415Y-9053738D01*
X-7681617Y-8966133D01*
X-8127778Y-8708542D01*
X-8127778Y-7982951D01*
X-8127777Y-7982946D01*
X-8160281Y-7819540D01*
X-8252843Y-7681011D01*
X-8252846Y-7681009D01*
X-9059065Y-6874789D01*
X-8973345Y-6726318D01*
X-8932502Y-6609973D01*
X-8938876Y-6477780D01*
X-8996179Y-6358482D01*
X-9095380Y-6270877D01*
X-9581642Y-5990134D01*
X-9605503Y-5870173D01*
X-9698065Y-5731644D01*
X-9698068Y-5731642D01*
X-9915899Y-5513810D01*
X-9915899Y-5245054D01*
X-8856315Y-5856805D01*
X-8720757Y-5904392D01*
X-8566734Y-5896966D01*
X-8427736Y-5830200D01*
X-8325663Y-5714617D01*
X-7975663Y-5108399D01*
X-7928076Y-4972841D01*
X-7935502Y-4818818D01*
X-8002268Y-4679819D01*
X-8064322Y-4625019D01*
X-7952128Y-4512825D01*
X-7887408Y-4535545D01*
X-7733385Y-4528119D01*
X-7594386Y-4461353D01*
X-7492314Y-4345770D01*
X-7301059Y-4014507D01*
X-5992804Y-4014507D01*
X-5995243Y-4021454D01*
X-5987817Y-4175477D01*
X-5921051Y-4314476D01*
X-5805468Y-4416549D01*
X-5242552Y-4741549D01*
X-5106994Y-4789136D01*
X-4952971Y-4781710D01*
X-4837990Y-4726480D01*
X-4834591Y-4796963D01*
X-4777289Y-4916262D01*
X-4678087Y-5003867D01*
X-4456236Y-5131953D01*
X-4474102Y-5139335D01*
X-4662712Y-5327617D01*
X-4764913Y-5573744D01*
X-4765146Y-5840247D01*
X-4663375Y-6086552D01*
X-4475093Y-6275162D01*
X-4228966Y-6377363D01*
X-3962463Y-6377596D01*
X-3716158Y-6275825D01*
X-3527548Y-6087543D01*
X-3425347Y-5841416D01*
X-3425247Y-5727195D01*
X-3015319Y-5963867D01*
X-2898974Y-6004710D01*
X-2766781Y-5998336D01*
X-2647483Y-5941033D01*
X-2640804Y-5933470D01*
X-2641261Y-5934771D01*
X-2634887Y-6066963D01*
X-2577585Y-6186262D01*
X-2478383Y-6273867D01*
X-1915467Y-6598867D01*
X-1799122Y-6639710D01*
X-1666929Y-6633336D01*
X-1547631Y-6576033D01*
X-1460026Y-6476832D01*
X-715342Y-5187000D01*
X2841082Y-5187000D01*
X2849395Y-5231179D01*
X2921012Y-5342474D01*
X3030286Y-5417138D01*
X3160000Y-5443406D01*
X4460000Y-5443406D01*
X4581179Y-5420605D01*
X4692474Y-5348988D01*
X4767138Y-5239714D01*
X4793406Y-5110000D01*
X4793406Y-5045750D01*
X4905000Y-5045750D01*
X4905000Y-5286310D01*
X5001673Y-5519699D01*
X5180302Y-5698327D01*
X5413691Y-5795000D01*
X5704250Y-5795000D01*
X5863000Y-5636250D01*
X5863000Y-4887000D01*
X5063750Y-4887000D01*
X4905000Y-5045750D01*
X4793406Y-5045750D01*
X4793406Y-4680463D01*
X4952310Y-4521560D01*
X5063750Y-4633000D01*
X5863000Y-4633000D01*
X5863000Y-4613000D01*
X6117000Y-4613000D01*
X6117000Y-4633000D01*
X6137000Y-4633000D01*
X6137000Y-4887000D01*
X6117000Y-4887000D01*
X6117000Y-5636250D01*
X6275750Y-5795000D01*
X6566309Y-5795000D01*
X6799698Y-5698327D01*
X6978327Y-5519699D01*
X7075000Y-5286310D01*
X7075000Y-5045750D01*
X6916252Y-4887002D01*
X7037612Y-4887002D01*
X7063797Y-4904498D01*
X7227203Y-4937001D01*
X10571360Y-4937001D01*
X10571365Y-4937002D01*
X10734771Y-4904498D01*
X10873300Y-4811936D01*
X11448236Y-4237000D01*
X11459416Y-4237000D01*
X11616543Y-4617275D01*
X12017614Y-5019047D01*
X12541907Y-5236752D01*
X13109603Y-5237248D01*
X13634275Y-5020457D01*
X14036047Y-4619386D01*
X14253752Y-4095093D01*
X14254248Y-3527397D01*
X14037457Y-3002725D01*
X13636386Y-2600953D01*
X13363195Y-2487514D01*
X13380275Y-2480457D01*
X13782047Y-2079386D01*
X13999752Y-1555093D01*
X14000248Y-987397D01*
X13842134Y-604735D01*
X13974931Y-471938D01*
X13974934Y-471936D01*
X14528933Y82064D01*
X14528936Y82066D01*
X14621498Y220595D01*
X14654001Y384001D01*
X14654001Y4307916D01*
X14654002Y4307921D01*
X14621498Y4471327D01*
X14528936Y4609856D01*
X10516856Y8621936D01*
X10378327Y8714498D01*
X10214921Y8747002D01*
X10214916Y8747001D01*
X310004Y8747001D01*
X309999Y8747002D01*
X146593Y8714498D01*
X8064Y8621936D01*
X-216594Y8397278D01*
X-216594Y8970000D01*
X-239395Y9091179D01*
X-311012Y9202474D01*
X-420286Y9277138D01*
X-550000Y9303406D01*
X-1450000Y9303406D01*
X-1571179Y9280605D01*
X-1682474Y9208988D01*
X-1757138Y9099714D01*
X-1777938Y8997000D01*
X-2206082Y8997000D01*
X-2214395Y9041179D01*
X-2286012Y9152474D01*
X-2395286Y9227138D01*
X-2525000Y9253406D01*
X-3825000Y9253406D01*
X-3946179Y9230605D01*
X-4057474Y9158988D01*
X-4132138Y9049714D01*
X-4158406Y8920000D01*
X-4158406Y8220000D01*
X-4135605Y8098821D01*
X-4063988Y7987526D01*
X-3954714Y7912862D01*
X-3825000Y7886594D01*
X-2525000Y7886594D01*
X-2403821Y7909395D01*
X-2292526Y7981012D01*
X-2217862Y8090286D01*
X-2207187Y8143000D01*
X-2005869Y8143000D01*
X-2795464Y7353406D01*
X-3825000Y7353406D01*
X-3946179Y7330605D01*
X-4057474Y7258988D01*
X-4132138Y7149714D01*
X-4158406Y7020000D01*
X-4158406Y6320000D01*
X-4135605Y6198821D01*
X-4063988Y6087526D01*
X-3954714Y6012862D01*
X-3825000Y5986594D01*
X-2525000Y5986594D01*
X-2403821Y6009395D01*
X-2292526Y6081012D01*
X-2217862Y6190286D01*
X-2191594Y6320000D01*
X-2191594Y6749536D01*
X-2035190Y6905940D01*
X-1926250Y6797000D01*
X-1127000Y6797000D01*
X-1127000Y6817000D01*
X-873000Y6817000D01*
X-873000Y6797000D01*
X-853000Y6797000D01*
X-853000Y6543000D01*
X-873000Y6543000D01*
X-873000Y6523000D01*
X-1127000Y6523000D01*
X-1127000Y6543000D01*
X-1926250Y6543000D01*
X-2085000Y6384250D01*
X-2085000Y6143690D01*
X-1988327Y5910301D01*
X-1809698Y5731673D01*
X-1576309Y5635000D01*
X-1285750Y5635000D01*
X-1127002Y5793748D01*
X-1127002Y5721868D01*
X-1251935Y5596935D01*
X-1344497Y5458406D01*
X-1352427Y5418541D01*
X-1421179Y5405605D01*
X-1532474Y5333988D01*
X-1607138Y5224714D01*
X-1633406Y5095000D01*
X-1633406Y3795000D01*
X-1610605Y3673821D01*
X-1538988Y3562526D01*
X-1429714Y3487862D01*
X-1300000Y3461594D01*
X-1142276Y3461594D01*
X-1626869Y2977001D01*
X-6352992Y2977001D01*
X-6352997Y2977002D01*
X-6516403Y2944498D01*
X-6654932Y2851936D01*
X-11206099Y-1699231D01*
X-11146248Y-1555093D01*
X-11145752Y-987397D01*
X-11362543Y-462725D01*
X-11763614Y-60953D01*
X-12036805Y52486D01*
X-12019725Y59543D01*
X-11617953Y460614D01*
X-11400248Y984907D01*
X-11399752Y1552603D01*
X-11616543Y2077275D01*
X-12017614Y2479047D01*
X-12037431Y2487276D01*
X-11765725Y2599543D01*
X-11363953Y3000614D01*
X-11146248Y3524907D01*
X-11145752Y4092603D01*
X-11362543Y4617275D01*
X-11763614Y5019047D01*
X-12287907Y5236752D01*
X-12855603Y5237248D01*
X-13380275Y5020457D01*
X-13782047Y4619386D01*
X-13999752Y4095093D01*
X-14000248Y3527397D01*
X-13783457Y3002725D01*
X-13382386Y2600953D01*
X-13362569Y2592724D01*
X-13634275Y2480457D01*
X-14036047Y2079386D01*
X-14253752Y1555093D01*
X-14254248Y987397D01*
X-14812100Y987397D01*
X-14812100Y6658536D01*
X-13180648Y9499137D01*
X-7632486Y12700000D01*
X-2345398Y12700000D01*
X-2166865Y11802455D01*
X-1658447Y11041553D01*
X-897545Y10533135D01*
X0Y10354602D01*
X897545Y10533135D01*
X1658447Y11041553D01*
X2166865Y11802455D01*
X2345398Y12700000D01*
X2166865Y13597545D01*
X1658447Y14358447D01*
X897545Y14866865D01*
X0Y15045398D01*
X-897545Y14866865D01*
X-1658447Y14358447D01*
X-2166865Y13597545D01*
X-2345398Y12700000D01*
X-7632486Y12700000D01*
X-1640179Y16157100D01*
X1640179Y16157100D01*
X13180648Y9499137D01*
G36*
X-3169783Y2040927D02*
X-3170016Y1774424D01*
X-3068245Y1528119D01*
X-2879963Y1339509D01*
X-2633836Y1237308D01*
X-2433912Y1237133D01*
X-2394846Y1198068D01*
X-2394844Y1198065D01*
X-2285922Y1125286D01*
X-2256315Y1105503D01*
X-2092909Y1073000D01*
X-1633406Y1073000D01*
X-1633406Y750000D01*
X-1610605Y628821D01*
X-1538988Y517526D01*
X-1429714Y442862D01*
X-1300000Y416594D01*
X-200000Y416594D01*
X-78821Y439395D01*
X581Y490489D01*
X70286Y442862D01*
X200000Y416594D01*
X1300000Y416594D01*
X1421179Y439395D01*
X1532474Y511012D01*
X1607138Y620286D01*
X1633406Y750000D01*
X1633406Y1176867D01*
X1866164Y1080217D01*
X2132667Y1079984D01*
X2372729Y1179175D01*
X2335216Y1088835D01*
X2335041Y888910D01*
X1029536Y-416594D01*
X200000Y-416594D01*
X188464Y-418765D01*
X188464Y0D01*
X161897Y141190D01*
X78454Y270865D01*
X-48866Y357859D01*
X-200000Y388464D01*
X-2400000Y388464D01*
X-2541190Y361897D01*
X-2670865Y278454D01*
X-2757859Y151134D01*
X-2788464Y0D01*
X-2788464Y-992000D01*
X-2898271Y-992000D01*
X-3092675Y-1030669D01*
X-3257481Y-1140790D01*
X-3642796Y-1526105D01*
X-3791632Y-1525975D01*
X-4057792Y-1635950D01*
X-4261606Y-1839408D01*
X-4372045Y-2105376D01*
X-4372176Y-2255485D01*
X-4453619Y-2336928D01*
X-4567004Y-2271465D01*
X-4702562Y-2223878D01*
X-4856585Y-2231304D01*
X-4995584Y-2298070D01*
X-5097656Y-2413653D01*
X-5435321Y-2998507D01*
X-6540225Y-2998507D01*
X-6341962Y-2846375D01*
X-6171683Y-2551442D01*
X-6229790Y-2334585D01*
X-7073515Y-1847460D01*
X-7083515Y-1864781D01*
X-7303485Y-1737781D01*
X-7293485Y-1720460D01*
X-7454513Y-1627490D01*
X-6946515Y-1627490D01*
X-6102790Y-2114615D01*
X-5885933Y-2056508D01*
X-5715653Y-1761575D01*
X-5682680Y-1511118D01*
X-5748062Y-1267107D01*
X-5901846Y-1066691D01*
X-6120621Y-940382D01*
X-6305033Y-833911D01*
X-6521890Y-892018D01*
X-6946515Y-1627490D01*
X-7454513Y-1627490D01*
X-8137210Y-1233335D01*
X-8354067Y-1291442D01*
X-8524347Y-1586375D01*
X-8557320Y-1836832D01*
X-8491938Y-2080843D01*
X-8338154Y-2281259D01*
X-8336765Y-2282061D01*
X-8352592Y-2276505D01*
X-8506615Y-2283931D01*
X-8645614Y-2350697D01*
X-8747686Y-2466280D01*
X-9247686Y-3332306D01*
X-9295273Y-3467864D01*
X-9287847Y-3621887D01*
X-9221081Y-3760885D01*
X-9105498Y-3862958D01*
X-8873213Y-3997068D01*
X-8964867Y-4088723D01*
X-9243685Y-3927747D01*
X-9379243Y-3880160D01*
X-9533266Y-3887586D01*
X-9672264Y-3954352D01*
X-9774337Y-4069935D01*
X-9915899Y-4315128D01*
X-9915899Y-3419974D01*
X-9867333Y-3420016D01*
X-9621028Y-3318245D01*
X-9432418Y-3129963D01*
X-9330217Y-2883836D01*
X-9329984Y-2617333D01*
X-9431755Y-2371028D01*
X-9620037Y-2182418D01*
X-9866164Y-2080217D01*
X-10132667Y-2079984D01*
X-10378972Y-2181755D01*
X-10567582Y-2370037D01*
X-10669783Y-2616164D01*
X-10669969Y-2828581D01*
X-10737396Y-2929493D01*
X-10769900Y-3092899D01*
X-10769899Y-3092904D01*
X-10769899Y-5690675D01*
X-10769900Y-5690680D01*
X-10738279Y-5849648D01*
X-10945999Y-6209430D01*
X-10945999Y-2646871D01*
X-9095636Y-796508D01*
X-8068317Y-796508D01*
X-8010210Y-1013365D01*
X-7166485Y-1500490D01*
X-6741860Y-765018D01*
X-6799967Y-548161D01*
X-6984379Y-441691D01*
X-7203154Y-315381D01*
X-7453611Y-282408D01*
X-7697622Y-347791D01*
X-7898038Y-501575D01*
X-8068317Y-796508D01*
X-9095636Y-796508D01*
X-6176127Y2123001D01*
X-3135703Y2123001D01*
X-3169783Y2040927D01*
X-3169783Y2040927D01*
G37*
X-3169783Y2040927D02*
X-3170016Y1774424D01*
X-3068245Y1528119D01*
X-2879963Y1339509D01*
X-2633836Y1237308D01*
X-2433912Y1237133D01*
X-2394846Y1198068D01*
X-2394844Y1198065D01*
X-2285922Y1125286D01*
X-2256315Y1105503D01*
X-2092909Y1073000D01*
X-1633406Y1073000D01*
X-1633406Y750000D01*
X-1610605Y628821D01*
X-1538988Y517526D01*
X-1429714Y442862D01*
X-1300000Y416594D01*
X-200000Y416594D01*
X-78821Y439395D01*
X581Y490489D01*
X70286Y442862D01*
X200000Y416594D01*
X1300000Y416594D01*
X1421179Y439395D01*
X1532474Y511012D01*
X1607138Y620286D01*
X1633406Y750000D01*
X1633406Y1176867D01*
X1866164Y1080217D01*
X2132667Y1079984D01*
X2372729Y1179175D01*
X2335216Y1088835D01*
X2335041Y888910D01*
X1029536Y-416594D01*
X200000Y-416594D01*
X188464Y-418765D01*
X188464Y0D01*
X161897Y141190D01*
X78454Y270865D01*
X-48866Y357859D01*
X-200000Y388464D01*
X-2400000Y388464D01*
X-2541190Y361897D01*
X-2670865Y278454D01*
X-2757859Y151134D01*
X-2788464Y0D01*
X-2788464Y-992000D01*
X-2898271Y-992000D01*
X-3092675Y-1030669D01*
X-3257481Y-1140790D01*
X-3642796Y-1526105D01*
X-3791632Y-1525975D01*
X-4057792Y-1635950D01*
X-4261606Y-1839408D01*
X-4372045Y-2105376D01*
X-4372176Y-2255485D01*
X-4453619Y-2336928D01*
X-4567004Y-2271465D01*
X-4702562Y-2223878D01*
X-4856585Y-2231304D01*
X-4995584Y-2298070D01*
X-5097656Y-2413653D01*
X-5435321Y-2998507D01*
X-6540225Y-2998507D01*
X-6341962Y-2846375D01*
X-6171683Y-2551442D01*
X-6229790Y-2334585D01*
X-7073515Y-1847460D01*
X-7083515Y-1864781D01*
X-7303485Y-1737781D01*
X-7293485Y-1720460D01*
X-7454513Y-1627490D01*
X-6946515Y-1627490D01*
X-6102790Y-2114615D01*
X-5885933Y-2056508D01*
X-5715653Y-1761575D01*
X-5682680Y-1511118D01*
X-5748062Y-1267107D01*
X-5901846Y-1066691D01*
X-6120621Y-940382D01*
X-6305033Y-833911D01*
X-6521890Y-892018D01*
X-6946515Y-1627490D01*
X-7454513Y-1627490D01*
X-8137210Y-1233335D01*
X-8354067Y-1291442D01*
X-8524347Y-1586375D01*
X-8557320Y-1836832D01*
X-8491938Y-2080843D01*
X-8338154Y-2281259D01*
X-8336765Y-2282061D01*
X-8352592Y-2276505D01*
X-8506615Y-2283931D01*
X-8645614Y-2350697D01*
X-8747686Y-2466280D01*
X-9247686Y-3332306D01*
X-9295273Y-3467864D01*
X-9287847Y-3621887D01*
X-9221081Y-3760885D01*
X-9105498Y-3862958D01*
X-8873213Y-3997068D01*
X-8964867Y-4088723D01*
X-9243685Y-3927747D01*
X-9379243Y-3880160D01*
X-9533266Y-3887586D01*
X-9672264Y-3954352D01*
X-9774337Y-4069935D01*
X-9915899Y-4315128D01*
X-9915899Y-3419974D01*
X-9867333Y-3420016D01*
X-9621028Y-3318245D01*
X-9432418Y-3129963D01*
X-9330217Y-2883836D01*
X-9329984Y-2617333D01*
X-9431755Y-2371028D01*
X-9620037Y-2182418D01*
X-9866164Y-2080217D01*
X-10132667Y-2079984D01*
X-10378972Y-2181755D01*
X-10567582Y-2370037D01*
X-10669783Y-2616164D01*
X-10669969Y-2828581D01*
X-10737396Y-2929493D01*
X-10769900Y-3092899D01*
X-10769899Y-3092904D01*
X-10769899Y-5690675D01*
X-10769900Y-5690680D01*
X-10738279Y-5849648D01*
X-10945999Y-6209430D01*
X-10945999Y-2646871D01*
X-9095636Y-796508D01*
X-8068317Y-796508D01*
X-8010210Y-1013365D01*
X-7166485Y-1500490D01*
X-6741860Y-765018D01*
X-6799967Y-548161D01*
X-6984379Y-441691D01*
X-7203154Y-315381D01*
X-7453611Y-282408D01*
X-7697622Y-347791D01*
X-7898038Y-501575D01*
X-8068317Y-796508D01*
X-9095636Y-796508D01*
X-6176127Y2123001D01*
X-3135703Y2123001D01*
X-3169783Y2040927D01*
G36*
X12640109Y5290943D02*
X12279703Y5291257D01*
X11735177Y5066263D01*
X11318201Y4650015D01*
X11092257Y4105882D01*
X11091743Y3516703D01*
X11229028Y3184448D01*
X9426579Y1381999D01*
X6713406Y1381999D01*
X6713406Y2555000D01*
X6690605Y2676179D01*
X6618988Y2787474D01*
X6509714Y2862138D01*
X6380000Y2888406D01*
X5680000Y2888406D01*
X5558821Y2865605D01*
X5447526Y2793988D01*
X5372862Y2684714D01*
X5346594Y2555000D01*
X5346594Y1825463D01*
X4903129Y1381999D01*
X4813406Y1381999D01*
X4813406Y2555000D01*
X4790605Y2676179D01*
X4718988Y2787474D01*
X4609714Y2862138D01*
X4507000Y2882938D01*
X4507000Y4346594D01*
X4530000Y4346594D01*
X4651179Y4369395D01*
X4762474Y4441012D01*
X4837138Y4550286D01*
X4863406Y4680000D01*
X4863406Y5082726D01*
X5316725Y4629407D01*
X5296594Y4530000D01*
X5296594Y3730000D01*
X5319395Y3608821D01*
X5391012Y3497526D01*
X5500286Y3422862D01*
X5630000Y3396594D01*
X6530000Y3396594D01*
X6651179Y3419395D01*
X6762474Y3491012D01*
X6837138Y3600286D01*
X6857938Y3703000D01*
X7286082Y3703000D01*
X7294395Y3658821D01*
X7366012Y3547526D01*
X7475286Y3472862D01*
X7605000Y3446594D01*
X8905000Y3446594D01*
X9026179Y3469395D01*
X9137474Y3541012D01*
X9212138Y3650286D01*
X9238406Y3780000D01*
X9238406Y4480000D01*
X9215605Y4601179D01*
X9143988Y4712474D01*
X9034714Y4787138D01*
X8905000Y4813406D01*
X7605000Y4813406D01*
X7483821Y4790605D01*
X7372526Y4718988D01*
X7297862Y4609714D01*
X7287187Y4557000D01*
X7085870Y4557000D01*
X7875463Y5346594D01*
X8905000Y5346594D01*
X9026179Y5369395D01*
X9137474Y5441012D01*
X9212138Y5550286D01*
X9238406Y5680000D01*
X9238406Y6380000D01*
X9215605Y6501179D01*
X9143988Y6612474D01*
X9034714Y6687138D01*
X8905000Y6713406D01*
X7605000Y6713406D01*
X7483821Y6690605D01*
X7372526Y6618988D01*
X7297862Y6509714D01*
X7271594Y6380000D01*
X7271594Y5950463D01*
X7115190Y5794060D01*
X7006250Y5903000D01*
X6207000Y5903000D01*
X6207000Y5883000D01*
X5953000Y5883000D01*
X5953000Y5903000D01*
X5933000Y5903000D01*
X5933000Y6157000D01*
X5953000Y6157000D01*
X5953000Y6906250D01*
X6207000Y6906250D01*
X6207000Y6157000D01*
X7006250Y6157000D01*
X7165000Y6315750D01*
X7165000Y6556310D01*
X7068327Y6789699D01*
X6889698Y6968327D01*
X6656309Y7065000D01*
X6365750Y7065000D01*
X6207000Y6906250D01*
X5953000Y6906250D01*
X5794250Y7065000D01*
X5503691Y7065000D01*
X5270302Y6968327D01*
X5091673Y6789699D01*
X4995000Y6556310D01*
X4995000Y6315750D01*
X5153748Y6157002D01*
X4995000Y6157002D01*
X4995000Y6133343D01*
X4933407Y6174498D01*
X4770001Y6207002D01*
X4769996Y6207001D01*
X780001Y6207001D01*
X616595Y6174498D01*
X478066Y6081936D01*
X478064Y6081933D01*
X198065Y5801935D01*
X184240Y5781244D01*
X58064Y5696936D01*
X58062Y5696933D01*
X-1936Y5636936D01*
X-94498Y5498407D01*
X-127002Y5335001D01*
X-127001Y5334996D01*
X-127001Y4476868D01*
X-266594Y4337275D01*
X-266594Y5095000D01*
X-289395Y5216179D01*
X-342470Y5298660D01*
X1245463Y6886594D01*
X1450000Y6886594D01*
X1571179Y6909395D01*
X1682474Y6981012D01*
X1757138Y7090286D01*
X1783406Y7220000D01*
X1783406Y7893001D01*
X10038051Y7893001D01*
X12640109Y5290943D01*
X12640109Y5290943D01*
G37*
X12640109Y5290943D02*
X12279703Y5291257D01*
X11735177Y5066263D01*
X11318201Y4650015D01*
X11092257Y4105882D01*
X11091743Y3516703D01*
X11229028Y3184448D01*
X9426579Y1381999D01*
X6713406Y1381999D01*
X6713406Y2555000D01*
X6690605Y2676179D01*
X6618988Y2787474D01*
X6509714Y2862138D01*
X6380000Y2888406D01*
X5680000Y2888406D01*
X5558821Y2865605D01*
X5447526Y2793988D01*
X5372862Y2684714D01*
X5346594Y2555000D01*
X5346594Y1825463D01*
X4903129Y1381999D01*
X4813406Y1381999D01*
X4813406Y2555000D01*
X4790605Y2676179D01*
X4718988Y2787474D01*
X4609714Y2862138D01*
X4507000Y2882938D01*
X4507000Y4346594D01*
X4530000Y4346594D01*
X4651179Y4369395D01*
X4762474Y4441012D01*
X4837138Y4550286D01*
X4863406Y4680000D01*
X4863406Y5082726D01*
X5316725Y4629407D01*
X5296594Y4530000D01*
X5296594Y3730000D01*
X5319395Y3608821D01*
X5391012Y3497526D01*
X5500286Y3422862D01*
X5630000Y3396594D01*
X6530000Y3396594D01*
X6651179Y3419395D01*
X6762474Y3491012D01*
X6837138Y3600286D01*
X6857938Y3703000D01*
X7286082Y3703000D01*
X7294395Y3658821D01*
X7366012Y3547526D01*
X7475286Y3472862D01*
X7605000Y3446594D01*
X8905000Y3446594D01*
X9026179Y3469395D01*
X9137474Y3541012D01*
X9212138Y3650286D01*
X9238406Y3780000D01*
X9238406Y4480000D01*
X9215605Y4601179D01*
X9143988Y4712474D01*
X9034714Y4787138D01*
X8905000Y4813406D01*
X7605000Y4813406D01*
X7483821Y4790605D01*
X7372526Y4718988D01*
X7297862Y4609714D01*
X7287187Y4557000D01*
X7085870Y4557000D01*
X7875463Y5346594D01*
X8905000Y5346594D01*
X9026179Y5369395D01*
X9137474Y5441012D01*
X9212138Y5550286D01*
X9238406Y5680000D01*
X9238406Y6380000D01*
X9215605Y6501179D01*
X9143988Y6612474D01*
X9034714Y6687138D01*
X8905000Y6713406D01*
X7605000Y6713406D01*
X7483821Y6690605D01*
X7372526Y6618988D01*
X7297862Y6509714D01*
X7271594Y6380000D01*
X7271594Y5950463D01*
X7115190Y5794060D01*
X7006250Y5903000D01*
X6207000Y5903000D01*
X6207000Y5883000D01*
X5953000Y5883000D01*
X5953000Y5903000D01*
X5933000Y5903000D01*
X5933000Y6157000D01*
X5953000Y6157000D01*
X5953000Y6906250D01*
X6207000Y6906250D01*
X6207000Y6157000D01*
X7006250Y6157000D01*
X7165000Y6315750D01*
X7165000Y6556310D01*
X7068327Y6789699D01*
X6889698Y6968327D01*
X6656309Y7065000D01*
X6365750Y7065000D01*
X6207000Y6906250D01*
X5953000Y6906250D01*
X5794250Y7065000D01*
X5503691Y7065000D01*
X5270302Y6968327D01*
X5091673Y6789699D01*
X4995000Y6556310D01*
X4995000Y6315750D01*
X5153748Y6157002D01*
X4995000Y6157002D01*
X4995000Y6133343D01*
X4933407Y6174498D01*
X4770001Y6207002D01*
X4769996Y6207001D01*
X780001Y6207001D01*
X616595Y6174498D01*
X478066Y6081936D01*
X478064Y6081933D01*
X198065Y5801935D01*
X184240Y5781244D01*
X58064Y5696936D01*
X58062Y5696933D01*
X-1936Y5636936D01*
X-94498Y5498407D01*
X-127002Y5335001D01*
X-127001Y5334996D01*
X-127001Y4476868D01*
X-266594Y4337275D01*
X-266594Y5095000D01*
X-289395Y5216179D01*
X-342470Y5298660D01*
X1245463Y6886594D01*
X1450000Y6886594D01*
X1571179Y6909395D01*
X1682474Y6981012D01*
X1757138Y7090286D01*
X1783406Y7220000D01*
X1783406Y7893001D01*
X10038051Y7893001D01*
X12640109Y5290943D01*
M02*
