%TF.GenerationSoftware,KiCad,Pcbnew,4.0.7-e2-6376~60~ubuntu17.10.1*%
%TF.CreationDate,2017-11-05T00:08:28+01:00*%
%TF.ProjectId,blinker,626C696E6B65722E6B696361645F7063,rev?*%
%TF.FileFunction,Copper,L2,Bot,Signal*%
%FSLAX46Y46*%
G04 Gerber Fmt 4.6, Leading zero omitted, Abs format (unit mm)*
G04 Created by KiCad (PCBNEW 4.0.7-e2-6376~60~ubuntu17.10.1) date Sun Nov  5 00:08:28 2017*
%MOMM*%
%LPD*%
G01*
G04 APERTURE LIST*
%ADD10C,0.127000*%
%ADD11R,4.064000X4.064000*%
%ADD12R,0.600000X1.100000*%
%ADD13C,2.200000*%
%ADD14R,2.000000X0.700000*%
%ADD15R,1.500000X1.100000*%
%ADD16R,3.000000X2.200000*%
%ADD17R,0.800000X0.900000*%
%ADD18R,1.300000X0.700000*%
%ADD19R,0.700000X1.300000*%
%ADD20C,0.685800*%
%ADD21C,0.200000*%
%ADD22C,0.254000*%
G04 APERTURE END LIST*
D10*
D11*
X0Y-11430000D03*
D12*
X5715000Y1440000D03*
X5715000Y3640000D03*
D13*
X12827000Y-3810000D03*
D14*
X-2800000Y3815000D03*
X2800000Y3815000D03*
X2800000Y7615000D03*
D13*
X-12827000Y1270000D03*
X12573000Y-1270000D03*
X-12827000Y-3810000D03*
D10*
G36*
X-7745063Y9776025D02*
X-6013013Y10776025D01*
X-5013013Y9043975D01*
X-6745063Y8043975D01*
X-7745063Y9776025D01*
X-7745063Y9776025D01*
G37*
G36*
X-5146987Y11276025D02*
X-3414937Y12276025D01*
X-2414937Y10543975D01*
X-4146987Y9543975D01*
X-5146987Y11276025D01*
X-5146987Y11276025D01*
G37*
D15*
X-1500000Y-750000D03*
D16*
X-1500000Y-1300000D03*
D15*
X1500000Y-750000D03*
X1500000Y750000D03*
X-1500000Y750000D03*
D17*
X7935000Y-4175000D03*
X6035000Y-4175000D03*
X6985000Y-2175000D03*
D18*
X8255000Y5395000D03*
X8255000Y3495000D03*
D19*
X7935000Y-6350000D03*
X6035000Y-6350000D03*
D18*
X0Y-5100000D03*
X0Y-7000000D03*
X-5715000Y1590000D03*
X-5715000Y3490000D03*
D13*
X-12573000Y-1270000D03*
X-12573000Y3810000D03*
X12827000Y1270000D03*
X12573000Y3810000D03*
D10*
G36*
X6745063Y8043975D02*
X5013013Y9043975D01*
X6013013Y10776025D01*
X7745063Y9776025D01*
X6745063Y8043975D01*
X6745063Y8043975D01*
G37*
G36*
X4146987Y9543975D02*
X2414937Y10543975D01*
X3414937Y12276025D01*
X5146987Y11276025D01*
X4146987Y9543975D01*
X4146987Y9543975D01*
G37*
D20*
X-6500000Y-9000000D03*
X-3648271Y-2250000D03*
X-2500000Y1907091D03*
X3250000Y-750000D03*
X2000000Y1750000D03*
X3004999Y954999D03*
X-10000000Y-2750000D03*
X-4095130Y-5707580D03*
D21*
X-5715000Y3490000D02*
X-3125000Y3490000D01*
X-3125000Y3490000D02*
X-2800000Y3815000D01*
X5715000Y3640000D02*
X8110000Y3640000D01*
X8110000Y3640000D02*
X8255000Y3495000D01*
X5715000Y3640000D02*
X2975000Y3640000D01*
X2975000Y3640000D02*
X2800000Y3815000D01*
X6035000Y-6350000D02*
X5485000Y-6350000D01*
X-2250000Y-7500000D02*
X-5000000Y-7500000D01*
X5485000Y-6350000D02*
X5385000Y-6250000D01*
X5385000Y-6250000D02*
X-1000000Y-6250000D01*
X-1000000Y-6250000D02*
X-2250000Y-7500000D01*
X-5000000Y-7500000D02*
X-6000000Y-8500000D01*
X-6000000Y-8500000D02*
X-6500000Y-9000000D01*
X-12827000Y1270000D02*
X-10642902Y-914098D01*
X-10642902Y-3058594D02*
X-6201496Y-7500000D01*
X-10642902Y-914098D02*
X-10642902Y-3058594D01*
X-6201496Y-7500000D02*
X-5000000Y-7500000D01*
D22*
X6379038Y9410000D02*
X4879038Y10910000D01*
X4879038Y10910000D02*
X3780962Y10910000D01*
X8255000Y5395000D02*
X7955000Y5395000D01*
X6379038Y8155300D02*
X6379038Y9410000D01*
X7955000Y5395000D02*
X6379038Y6970962D01*
X6379038Y6970962D02*
X6379038Y8155300D01*
X8255000Y5395000D02*
X10988000Y5395000D01*
X10988000Y5395000D02*
X12573000Y3810000D01*
X-1500000Y-1300000D02*
X-3254000Y-1300000D01*
X-3254000Y-1300000D02*
X-3648271Y-1694271D01*
X-3648271Y-1694271D02*
X-3648271Y-2250000D01*
D21*
X5715000Y1440000D02*
X5715000Y1035000D01*
X5715000Y1035000D02*
X7000000Y-250000D01*
X7000000Y-250000D02*
X7000000Y-2110000D01*
X7000000Y-2110000D02*
X6985000Y-2125000D01*
X6985000Y-2125000D02*
X6985000Y-2175000D01*
X-4005000Y3000000D02*
X3655000Y3000000D01*
X3655000Y3000000D02*
X5215000Y1440000D01*
X5215000Y1440000D02*
X5715000Y1440000D01*
X-5715000Y1590000D02*
X-5415000Y1590000D01*
X-5415000Y1590000D02*
X-4005000Y3000000D01*
X0Y-7000000D02*
X0Y-11430000D01*
X1500000Y-750000D02*
X550000Y-750000D01*
X-2015067Y1907091D02*
X-2500000Y1907091D01*
X-817089Y1907091D02*
X-2015067Y1907091D01*
X354001Y736001D02*
X-817089Y1907091D01*
X354001Y-554001D02*
X354001Y736001D01*
X550000Y-750000D02*
X354001Y-554001D01*
X3250000Y-750000D02*
X1500000Y-750000D01*
X1500000Y1250000D02*
X2000000Y1750000D01*
X1500000Y750000D02*
X1500000Y1250000D01*
X3004999Y1696497D02*
X3004999Y1439932D01*
X3004999Y1439932D02*
X3004999Y954999D01*
X-3142901Y2215684D02*
X-2808593Y2549992D01*
X-3142901Y1598498D02*
X-3142901Y2215684D01*
X-2808593Y1264190D02*
X-3142901Y1598498D01*
X2151504Y2549992D02*
X3004999Y1696497D01*
X-2808593Y2549992D02*
X2151504Y2549992D01*
X-2808593Y1108593D02*
X-2808593Y1264190D01*
X-2450000Y750000D02*
X-2808593Y1108593D01*
X-1500000Y750000D02*
X-2450000Y750000D01*
X-10000000Y-2265067D02*
X-10000000Y-2750000D01*
X-10000000Y1237000D02*
X-10000000Y-2265067D01*
X-12573000Y3810000D02*
X-10000000Y1237000D01*
X0Y-5100000D02*
X-3487550Y-5100000D01*
X-3487550Y-5100000D02*
X-4095130Y-5707580D01*
X-3752231Y-5364681D02*
X-4095130Y-5707580D01*
X-1312551Y-2925001D02*
X-3752231Y-5364681D01*
X8631999Y-2925001D02*
X-1312551Y-2925001D01*
X12827000Y1270000D02*
X8631999Y-2925001D01*
X7935000Y-4175000D02*
X7935000Y-6350000D01*
D22*
G36*
X13180648Y9499137D02*
X14812100Y6658536D01*
X14812100Y-6658536D01*
X13180648Y-9499137D01*
X6269148Y-13486541D01*
X3214641Y-9821132D01*
X3197566Y-9802434D01*
X2197566Y-8802434D01*
X2108702Y-8742613D01*
X2000000Y-8720600D01*
X427000Y-8720600D01*
X427000Y-7683406D01*
X650000Y-7683406D01*
X771179Y-7660605D01*
X882474Y-7588988D01*
X957138Y-7479714D01*
X983406Y-7350000D01*
X983406Y-6677000D01*
X5220577Y-6677000D01*
X5321594Y-6744497D01*
X5351594Y-6750464D01*
X5351594Y-7000000D01*
X5374395Y-7121179D01*
X5446012Y-7232474D01*
X5555286Y-7307138D01*
X5685000Y-7333406D01*
X6385000Y-7333406D01*
X6506179Y-7310605D01*
X6617474Y-7238988D01*
X6692138Y-7129714D01*
X6718406Y-7000000D01*
X6718406Y-5700000D01*
X6695605Y-5578821D01*
X6623988Y-5467526D01*
X6514714Y-5392862D01*
X6385000Y-5366594D01*
X5685000Y-5366594D01*
X5563821Y-5389395D01*
X5452526Y-5461012D01*
X5377862Y-5570286D01*
X5351594Y-5700000D01*
X5351594Y-5823000D01*
X-999995Y-5823000D01*
X-1000000Y-5822999D01*
X-1163406Y-5855503D01*
X-1301935Y-5948065D01*
X-2426870Y-7073000D01*
X-4999995Y-7073000D01*
X-5000000Y-7072999D01*
X-5000005Y-7073000D01*
X-6024627Y-7073000D01*
X-9733082Y-3364545D01*
X-9621028Y-3318245D01*
X-9432418Y-3129963D01*
X-9330217Y-2883836D01*
X-9329984Y-2617333D01*
X-9431755Y-2371028D01*
X-9573000Y-2229537D01*
X-9573000Y1237000D01*
X-9605503Y1400406D01*
X-9698065Y1538935D01*
X-9698068Y1538937D01*
X-11304037Y3144907D01*
X-11146248Y3524907D01*
X-11145973Y3840000D01*
X-6698406Y3840000D01*
X-6698406Y3140000D01*
X-6675605Y3018821D01*
X-6603988Y2907526D01*
X-6494714Y2832862D01*
X-6365000Y2806594D01*
X-5065000Y2806594D01*
X-4943821Y2829395D01*
X-4832526Y2901012D01*
X-4757862Y3010286D01*
X-4747187Y3063000D01*
X-4545870Y3063000D01*
X-5335464Y2273406D01*
X-6365000Y2273406D01*
X-6486179Y2250605D01*
X-6597474Y2178988D01*
X-6672138Y2069714D01*
X-6698406Y1940000D01*
X-6698406Y1240000D01*
X-6675605Y1118821D01*
X-6603988Y1007526D01*
X-6494714Y932862D01*
X-6365000Y906594D01*
X-5065000Y906594D01*
X-4943821Y929395D01*
X-4832526Y1001012D01*
X-4757862Y1110286D01*
X-4731594Y1240000D01*
X-4731594Y1669536D01*
X-3828130Y2573000D01*
X-3389455Y2573000D01*
X-3444836Y2517619D01*
X-3537398Y2379090D01*
X-3569902Y2215684D01*
X-3569901Y2215679D01*
X-3569901Y1598503D01*
X-3569902Y1598498D01*
X-3537398Y1435092D01*
X-3444836Y1296563D01*
X-3230312Y1082039D01*
X-3203090Y945187D01*
X-3110528Y806658D01*
X-2751935Y448065D01*
X-2613406Y355503D01*
X-2583406Y349536D01*
X-2583406Y200000D01*
X-2581235Y188464D01*
X-3000000Y188464D01*
X-3141190Y161897D01*
X-3270865Y78454D01*
X-3357859Y-48866D01*
X-3388464Y-200000D01*
X-3388464Y-818746D01*
X-3416150Y-824254D01*
X-3448404Y-830669D01*
X-3613211Y-940790D01*
X-4007481Y-1335061D01*
X-4117602Y-1499868D01*
X-4156271Y-1694271D01*
X-4156271Y-1734257D01*
X-4261606Y-1839408D01*
X-4372045Y-2105376D01*
X-4372296Y-2393361D01*
X-4262321Y-2659521D01*
X-4058863Y-2863335D01*
X-3792895Y-2973774D01*
X-3504910Y-2974025D01*
X-3238750Y-2864050D01*
X-3135537Y-2761017D01*
X-3000000Y-2788464D01*
X-1779883Y-2788464D01*
X-3789485Y-4798065D01*
X-4029158Y-5037738D01*
X-4227797Y-5037564D01*
X-4474102Y-5139335D01*
X-4662712Y-5327617D01*
X-4764913Y-5573744D01*
X-4765146Y-5840247D01*
X-4663375Y-6086552D01*
X-4475093Y-6275162D01*
X-4228966Y-6377363D01*
X-3962463Y-6377596D01*
X-3716158Y-6275825D01*
X-3527548Y-6087543D01*
X-3425347Y-5841416D01*
X-3425172Y-5641492D01*
X-3310680Y-5527000D01*
X-968918Y-5527000D01*
X-960605Y-5571179D01*
X-888988Y-5682474D01*
X-779714Y-5757138D01*
X-650000Y-5783406D01*
X650000Y-5783406D01*
X771179Y-5760605D01*
X882474Y-5688988D01*
X957138Y-5579714D01*
X983406Y-5450000D01*
X983406Y-4750000D01*
X960605Y-4628821D01*
X888988Y-4517526D01*
X805894Y-4460750D01*
X5000000Y-4460750D01*
X5000000Y-4751309D01*
X5096673Y-4984698D01*
X5275301Y-5163327D01*
X5508690Y-5260000D01*
X5749250Y-5260000D01*
X5908000Y-5101250D01*
X5908000Y-4302000D01*
X6162000Y-4302000D01*
X6162000Y-5101250D01*
X6320750Y-5260000D01*
X6561310Y-5260000D01*
X6794699Y-5163327D01*
X6973327Y-4984698D01*
X7070000Y-4751309D01*
X7070000Y-4460750D01*
X6911250Y-4302000D01*
X6162000Y-4302000D01*
X5908000Y-4302000D01*
X5158750Y-4302000D01*
X5000000Y-4460750D01*
X805894Y-4460750D01*
X779714Y-4442862D01*
X650000Y-4416594D01*
X-650000Y-4416594D01*
X-771179Y-4439395D01*
X-882474Y-4511012D01*
X-957138Y-4620286D01*
X-967813Y-4673000D01*
X-2456680Y-4673000D01*
X-1135682Y-3352001D01*
X5109974Y-3352001D01*
X5096673Y-3365302D01*
X5000000Y-3598691D01*
X5000000Y-3889250D01*
X5158750Y-4048000D01*
X5908000Y-4048000D01*
X5908000Y-4028000D01*
X6162000Y-4028000D01*
X6162000Y-4048000D01*
X6911250Y-4048000D01*
X7070000Y-3889250D01*
X7070000Y-3725000D01*
X7201594Y-3725000D01*
X7201594Y-4625000D01*
X7224395Y-4746179D01*
X7296012Y-4857474D01*
X7405286Y-4932138D01*
X7508000Y-4952938D01*
X7508000Y-5381082D01*
X7463821Y-5389395D01*
X7352526Y-5461012D01*
X7277862Y-5570286D01*
X7251594Y-5700000D01*
X7251594Y-7000000D01*
X7274395Y-7121179D01*
X7346012Y-7232474D01*
X7455286Y-7307138D01*
X7585000Y-7333406D01*
X8285000Y-7333406D01*
X8406179Y-7310605D01*
X8517474Y-7238988D01*
X8592138Y-7129714D01*
X8618406Y-7000000D01*
X8618406Y-5700000D01*
X8595605Y-5578821D01*
X8523988Y-5467526D01*
X8414714Y-5392862D01*
X8362000Y-5382187D01*
X8362000Y-4953326D01*
X8456179Y-4935605D01*
X8567474Y-4863988D01*
X8642138Y-4754714D01*
X8668406Y-4625000D01*
X8668406Y-3725000D01*
X8645605Y-3603821D01*
X8573988Y-3492526D01*
X8464714Y-3417862D01*
X8335000Y-3391594D01*
X7535000Y-3391594D01*
X7413821Y-3414395D01*
X7302526Y-3486012D01*
X7227862Y-3595286D01*
X7201594Y-3725000D01*
X7070000Y-3725000D01*
X7070000Y-3598691D01*
X6973327Y-3365302D01*
X6960026Y-3352001D01*
X8631994Y-3352001D01*
X8631999Y-3352002D01*
X8795405Y-3319498D01*
X8933934Y-3226936D01*
X11146222Y-1014647D01*
X11145752Y-1552603D01*
X11362543Y-2077275D01*
X11763614Y-2479047D01*
X12036805Y-2592486D01*
X12019725Y-2599543D01*
X11617953Y-3000614D01*
X11400248Y-3524907D01*
X11399752Y-4092603D01*
X11616543Y-4617275D01*
X12017614Y-5019047D01*
X12541907Y-5236752D01*
X13109603Y-5237248D01*
X13634275Y-5020457D01*
X14036047Y-4619386D01*
X14253752Y-4095093D01*
X14254248Y-3527397D01*
X14037457Y-3002725D01*
X13636386Y-2600953D01*
X13363195Y-2487514D01*
X13380275Y-2480457D01*
X13782047Y-2079386D01*
X13999752Y-1555093D01*
X14000248Y-987397D01*
X13783457Y-462725D01*
X13382386Y-60953D01*
X13362569Y-52724D01*
X13634275Y59543D01*
X14036047Y460614D01*
X14253752Y984907D01*
X14254248Y1552603D01*
X14037457Y2077275D01*
X13636386Y2479047D01*
X13424245Y2567135D01*
X13827799Y2969985D01*
X14053743Y3514118D01*
X14054257Y4103297D01*
X13829263Y4647823D01*
X13413015Y5064799D01*
X12868882Y5290743D01*
X12279703Y5291257D01*
X11947448Y5153972D01*
X11347210Y5754210D01*
X11182403Y5864331D01*
X10988000Y5903000D01*
X9256080Y5903000D01*
X9183454Y6015865D01*
X9056134Y6102859D01*
X8905000Y6133464D01*
X7934956Y6133464D01*
X6887038Y7181382D01*
X6887038Y7689790D01*
X6979410Y7734160D01*
X7081483Y7849743D01*
X8081483Y9581793D01*
X8129070Y9717350D01*
X8121644Y9871374D01*
X8054878Y10010372D01*
X7939295Y10112445D01*
X6207245Y11112445D01*
X6071688Y11160032D01*
X5917664Y11152606D01*
X5778666Y11085840D01*
X5676593Y10970257D01*
X5625572Y10881886D01*
X5462272Y11045186D01*
X5483407Y11081793D01*
X5530994Y11217350D01*
X5523568Y11371374D01*
X5456802Y11510372D01*
X5341219Y11612445D01*
X3609169Y12612445D01*
X3473612Y12660032D01*
X3319588Y12652606D01*
X3180590Y12585840D01*
X3078517Y12470257D01*
X2078517Y10738207D01*
X2030930Y10602650D01*
X2038356Y10448626D01*
X2105122Y10309628D01*
X2220705Y10207555D01*
X3952755Y9207555D01*
X4088312Y9159968D01*
X4242336Y9167394D01*
X4381334Y9234160D01*
X4483407Y9349743D01*
X4936352Y10134266D01*
X5099652Y9970966D01*
X4676593Y9238207D01*
X4629006Y9102650D01*
X4636432Y8948626D01*
X4703198Y8809628D01*
X4818781Y8707555D01*
X5871038Y8100034D01*
X5871038Y6970962D01*
X5909707Y6776559D01*
X6019828Y6611752D01*
X7216536Y5415044D01*
X7216536Y5045000D01*
X7243103Y4903810D01*
X7326546Y4774135D01*
X7453866Y4687141D01*
X7605000Y4656536D01*
X8905000Y4656536D01*
X9046190Y4683103D01*
X9175865Y4766546D01*
X9258168Y4887000D01*
X10777580Y4887000D01*
X11229113Y4435467D01*
X11092257Y4105882D01*
X11091743Y3516703D01*
X11316737Y2972177D01*
X11732985Y2555201D01*
X11988369Y2449156D01*
X11617953Y2079386D01*
X11400248Y1555093D01*
X11399752Y987397D01*
X11557866Y604735D01*
X8455129Y-2498001D01*
X7718406Y-2498001D01*
X7718406Y-1725000D01*
X7695605Y-1603821D01*
X7623988Y-1492526D01*
X7514714Y-1417862D01*
X7427000Y-1400099D01*
X7427000Y-250000D01*
X7394497Y-86594D01*
X7301935Y51935D01*
X7301932Y51937D01*
X6348406Y1005464D01*
X6348406Y1990000D01*
X6325605Y2111179D01*
X6253988Y2222474D01*
X6144714Y2297138D01*
X6015000Y2323406D01*
X5415000Y2323406D01*
X5293821Y2300605D01*
X5182526Y2228988D01*
X5120565Y2138305D01*
X4045870Y3213000D01*
X5081594Y3213000D01*
X5081594Y3090000D01*
X5104395Y2968821D01*
X5176012Y2857526D01*
X5285286Y2782862D01*
X5415000Y2756594D01*
X6015000Y2756594D01*
X6136179Y2779395D01*
X6247474Y2851012D01*
X6322138Y2960286D01*
X6348406Y3090000D01*
X6348406Y3213000D01*
X7271594Y3213000D01*
X7271594Y3145000D01*
X7294395Y3023821D01*
X7366012Y2912526D01*
X7475286Y2837862D01*
X7605000Y2811594D01*
X8905000Y2811594D01*
X9026179Y2834395D01*
X9137474Y2906012D01*
X9212138Y3015286D01*
X9238406Y3145000D01*
X9238406Y3845000D01*
X9215605Y3966179D01*
X9143988Y4077474D01*
X9034714Y4152138D01*
X8905000Y4178406D01*
X7605000Y4178406D01*
X7483821Y4155605D01*
X7372526Y4083988D01*
X7360919Y4067000D01*
X6348406Y4067000D01*
X6348406Y4190000D01*
X6325605Y4311179D01*
X6253988Y4422474D01*
X6144714Y4497138D01*
X6015000Y4523406D01*
X5415000Y4523406D01*
X5293821Y4500605D01*
X5182526Y4428988D01*
X5107862Y4319714D01*
X5081594Y4190000D01*
X5081594Y4067000D01*
X4133406Y4067000D01*
X4133406Y4165000D01*
X4110605Y4286179D01*
X4038988Y4397474D01*
X3929714Y4472138D01*
X3800000Y4498406D01*
X1800000Y4498406D01*
X1678821Y4475605D01*
X1567526Y4403988D01*
X1492862Y4294714D01*
X1466594Y4165000D01*
X1466594Y3465000D01*
X1473744Y3427000D01*
X-1474289Y3427000D01*
X-1466594Y3465000D01*
X-1466594Y4165000D01*
X-1489395Y4286179D01*
X-1561012Y4397474D01*
X-1670286Y4472138D01*
X-1800000Y4498406D01*
X-3800000Y4498406D01*
X-3921179Y4475605D01*
X-4032474Y4403988D01*
X-4107138Y4294714D01*
X-4133406Y4165000D01*
X-4133406Y3917000D01*
X-4746082Y3917000D01*
X-4754395Y3961179D01*
X-4826012Y4072474D01*
X-4935286Y4147138D01*
X-5065000Y4173406D01*
X-6365000Y4173406D01*
X-6486179Y4150605D01*
X-6597474Y4078988D01*
X-6672138Y3969714D01*
X-6698406Y3840000D01*
X-11145973Y3840000D01*
X-11145752Y4092603D01*
X-11362543Y4617275D01*
X-11763614Y5019047D01*
X-12287907Y5236752D01*
X-12855603Y5237248D01*
X-13380275Y5020457D01*
X-13782047Y4619386D01*
X-13999752Y4095093D01*
X-14000248Y3527397D01*
X-13783457Y3002725D01*
X-13382386Y2600953D01*
X-13362569Y2592724D01*
X-13634275Y2480457D01*
X-14036047Y2079386D01*
X-14253752Y1555093D01*
X-14254248Y987397D01*
X-14037457Y462725D01*
X-13636386Y60953D01*
X-13363195Y-52486D01*
X-13380275Y-59543D01*
X-13782047Y-460614D01*
X-13999752Y-984907D01*
X-14000248Y-1552603D01*
X-13783457Y-2077275D01*
X-13614117Y-2246911D01*
X-13761359Y-2307901D01*
X-13872263Y-2585132D01*
X-12827000Y-3630395D01*
X-11781737Y-2585132D01*
X-11815400Y-2500983D01*
X-11765725Y-2480457D01*
X-11363953Y-2079386D01*
X-11146248Y-1555093D01*
X-11145776Y-1015094D01*
X-11069902Y-1090968D01*
X-11069902Y-3058589D01*
X-11069903Y-3058594D01*
X-11037399Y-3222000D01*
X-10944837Y-3360529D01*
X-6503433Y-7801932D01*
X-6503431Y-7801935D01*
X-6364902Y-7894497D01*
X-6201496Y-7927001D01*
X-6201491Y-7927000D01*
X-6030870Y-7927000D01*
X-6301935Y-8198065D01*
X-6301937Y-8198068D01*
X-6434027Y-8330158D01*
X-6632667Y-8329984D01*
X-6878972Y-8431755D01*
X-7067582Y-8620037D01*
X-7169783Y-8866164D01*
X-7170016Y-9132667D01*
X-7068245Y-9378972D01*
X-6879963Y-9567582D01*
X-6633836Y-9669783D01*
X-6367333Y-9670016D01*
X-6121028Y-9568245D01*
X-5932418Y-9379963D01*
X-5830217Y-9133836D01*
X-5830042Y-8933911D01*
X-5698068Y-8801937D01*
X-5698065Y-8801935D01*
X-4823131Y-7927000D01*
X-2250005Y-7927000D01*
X-2250000Y-7927001D01*
X-2086594Y-7894497D01*
X-1948065Y-7801935D01*
X-983406Y-6837276D01*
X-983406Y-7350000D01*
X-960605Y-7471179D01*
X-888988Y-7582474D01*
X-779714Y-7657138D01*
X-650000Y-7683406D01*
X-427000Y-7683406D01*
X-427000Y-8720600D01*
X-2000000Y-8720600D01*
X-2105136Y-8741136D01*
X-2197566Y-8802434D01*
X-3197566Y-9802434D01*
X-3214641Y-9821132D01*
X-6269148Y-13486541D01*
X-13180648Y-9499137D01*
X-14812100Y-6658536D01*
X-14812100Y-5034868D01*
X-13872263Y-5034868D01*
X-13761359Y-5312099D01*
X-13115407Y-5555323D01*
X-12425547Y-5532836D01*
X-11892641Y-5312099D01*
X-11781737Y-5034868D01*
X-12827000Y-3989605D01*
X-13872263Y-5034868D01*
X-14812100Y-5034868D01*
X-14812100Y-3521593D01*
X-14572323Y-3521593D01*
X-14549836Y-4211453D01*
X-14329099Y-4744359D01*
X-14051868Y-4855263D01*
X-13006605Y-3810000D01*
X-12647395Y-3810000D01*
X-11602132Y-4855263D01*
X-11324901Y-4744359D01*
X-11081677Y-4098407D01*
X-11104164Y-3408547D01*
X-11324901Y-2875641D01*
X-11602132Y-2764737D01*
X-12647395Y-3810000D01*
X-13006605Y-3810000D01*
X-14051868Y-2764737D01*
X-14329099Y-2875641D01*
X-14572323Y-3521593D01*
X-14812100Y-3521593D01*
X-14812100Y6658536D01*
X-13843489Y8345033D01*
X-7652115Y8345033D01*
X-7231835Y7617088D01*
X-7031419Y7463303D01*
X-6787408Y7397920D01*
X-6536951Y7430893D01*
X-6318177Y7557203D01*
X-5809005Y7851173D01*
X-5778505Y7965000D01*
X1411536Y7965000D01*
X1411536Y7265000D01*
X1438103Y7123810D01*
X1521546Y6994135D01*
X1648866Y6907141D01*
X1800000Y6876536D01*
X3800000Y6876536D01*
X3941190Y6903103D01*
X4070865Y6986546D01*
X4157859Y7113866D01*
X4188464Y7265000D01*
X4188464Y7965000D01*
X4161897Y8106190D01*
X4078454Y8235865D01*
X3951134Y8322859D01*
X3800000Y8353464D01*
X1800000Y8353464D01*
X1658810Y8326897D01*
X1529135Y8243454D01*
X1442141Y8116134D01*
X1411536Y7965000D01*
X-5778505Y7965000D01*
X-5750898Y8068030D01*
X-6425523Y9236515D01*
X-7594008Y8561890D01*
X-7652115Y8345033D01*
X-13843489Y8345033D01*
X-13180648Y9499137D01*
X-12627311Y9818370D01*
X-8391117Y9818370D01*
X-8358144Y9567912D01*
X-7937865Y8839967D01*
X-7721008Y8781860D01*
X-6713552Y9363515D01*
X-6205553Y9363515D01*
X-5530928Y8195030D01*
X-5314071Y8136923D01*
X-4804899Y8430894D01*
X-4586125Y8557203D01*
X-4432341Y8757619D01*
X-4380988Y8949274D01*
X-4189332Y8897920D01*
X-3938875Y8930893D01*
X-3720101Y9057203D01*
X-3210929Y9351173D01*
X-3152822Y9568030D01*
X-3827447Y10736515D01*
X-4995932Y10061890D01*
X-5004625Y10029447D01*
X-5037068Y10038140D01*
X-6205553Y9363515D01*
X-6713552Y9363515D01*
X-6552523Y9456485D01*
X-7227148Y10624970D01*
X-7444005Y10683077D01*
X-7953177Y10389106D01*
X-8171951Y10262797D01*
X-8325735Y10062381D01*
X-8391117Y9818370D01*
X-12627311Y9818370D01*
X-11009071Y10751970D01*
X-7007178Y10751970D01*
X-6332553Y9583485D01*
X-5164068Y10258110D01*
X-5155375Y10290553D01*
X-5122932Y10281860D01*
X-4115476Y10863515D01*
X-3607477Y10863515D01*
X-2932852Y9695030D01*
X-2715995Y9636923D01*
X-2206823Y9930894D01*
X-1988049Y10057203D01*
X-1834265Y10257619D01*
X-1768883Y10501630D01*
X-1801856Y10752088D01*
X-2222135Y11480033D01*
X-2438992Y11538140D01*
X-3607477Y10863515D01*
X-4115476Y10863515D01*
X-3954447Y10956485D01*
X-4629072Y12124970D01*
X-4845929Y12183077D01*
X-5355101Y11889106D01*
X-5573875Y11762797D01*
X-5727659Y11562381D01*
X-5779012Y11370726D01*
X-5970668Y11422080D01*
X-6221125Y11389107D01*
X-6439899Y11262797D01*
X-6949071Y10968827D01*
X-7007178Y10751970D01*
X-11009071Y10751970D01*
X-8409071Y12251970D01*
X-4409102Y12251970D01*
X-3734477Y11083485D01*
X-2565992Y11758110D01*
X-2507885Y11974967D01*
X-2926483Y12700000D01*
X-2345398Y12700000D01*
X-2166865Y11802455D01*
X-1658447Y11041553D01*
X-897545Y10533135D01*
X0Y10354602D01*
X897545Y10533135D01*
X1658447Y11041553D01*
X2166865Y11802455D01*
X2345398Y12700000D01*
X2166865Y13597545D01*
X1658447Y14358447D01*
X897545Y14866865D01*
X0Y15045398D01*
X-897545Y14866865D01*
X-1658447Y14358447D01*
X-2166865Y13597545D01*
X-2345398Y12700000D01*
X-2926483Y12700000D01*
X-2928165Y12702912D01*
X-3128581Y12856697D01*
X-3372592Y12922080D01*
X-3623049Y12889107D01*
X-3841823Y12762797D01*
X-4350995Y12468827D01*
X-4409102Y12251970D01*
X-8409071Y12251970D01*
X-1640179Y16157100D01*
X1640179Y16157100D01*
X13180648Y9499137D01*
X13180648Y9499137D01*
G37*
X13180648Y9499137D02*
X14812100Y6658536D01*
X14812100Y-6658536D01*
X13180648Y-9499137D01*
X6269148Y-13486541D01*
X3214641Y-9821132D01*
X3197566Y-9802434D01*
X2197566Y-8802434D01*
X2108702Y-8742613D01*
X2000000Y-8720600D01*
X427000Y-8720600D01*
X427000Y-7683406D01*
X650000Y-7683406D01*
X771179Y-7660605D01*
X882474Y-7588988D01*
X957138Y-7479714D01*
X983406Y-7350000D01*
X983406Y-6677000D01*
X5220577Y-6677000D01*
X5321594Y-6744497D01*
X5351594Y-6750464D01*
X5351594Y-7000000D01*
X5374395Y-7121179D01*
X5446012Y-7232474D01*
X5555286Y-7307138D01*
X5685000Y-7333406D01*
X6385000Y-7333406D01*
X6506179Y-7310605D01*
X6617474Y-7238988D01*
X6692138Y-7129714D01*
X6718406Y-7000000D01*
X6718406Y-5700000D01*
X6695605Y-5578821D01*
X6623988Y-5467526D01*
X6514714Y-5392862D01*
X6385000Y-5366594D01*
X5685000Y-5366594D01*
X5563821Y-5389395D01*
X5452526Y-5461012D01*
X5377862Y-5570286D01*
X5351594Y-5700000D01*
X5351594Y-5823000D01*
X-999995Y-5823000D01*
X-1000000Y-5822999D01*
X-1163406Y-5855503D01*
X-1301935Y-5948065D01*
X-2426870Y-7073000D01*
X-4999995Y-7073000D01*
X-5000000Y-7072999D01*
X-5000005Y-7073000D01*
X-6024627Y-7073000D01*
X-9733082Y-3364545D01*
X-9621028Y-3318245D01*
X-9432418Y-3129963D01*
X-9330217Y-2883836D01*
X-9329984Y-2617333D01*
X-9431755Y-2371028D01*
X-9573000Y-2229537D01*
X-9573000Y1237000D01*
X-9605503Y1400406D01*
X-9698065Y1538935D01*
X-9698068Y1538937D01*
X-11304037Y3144907D01*
X-11146248Y3524907D01*
X-11145973Y3840000D01*
X-6698406Y3840000D01*
X-6698406Y3140000D01*
X-6675605Y3018821D01*
X-6603988Y2907526D01*
X-6494714Y2832862D01*
X-6365000Y2806594D01*
X-5065000Y2806594D01*
X-4943821Y2829395D01*
X-4832526Y2901012D01*
X-4757862Y3010286D01*
X-4747187Y3063000D01*
X-4545870Y3063000D01*
X-5335464Y2273406D01*
X-6365000Y2273406D01*
X-6486179Y2250605D01*
X-6597474Y2178988D01*
X-6672138Y2069714D01*
X-6698406Y1940000D01*
X-6698406Y1240000D01*
X-6675605Y1118821D01*
X-6603988Y1007526D01*
X-6494714Y932862D01*
X-6365000Y906594D01*
X-5065000Y906594D01*
X-4943821Y929395D01*
X-4832526Y1001012D01*
X-4757862Y1110286D01*
X-4731594Y1240000D01*
X-4731594Y1669536D01*
X-3828130Y2573000D01*
X-3389455Y2573000D01*
X-3444836Y2517619D01*
X-3537398Y2379090D01*
X-3569902Y2215684D01*
X-3569901Y2215679D01*
X-3569901Y1598503D01*
X-3569902Y1598498D01*
X-3537398Y1435092D01*
X-3444836Y1296563D01*
X-3230312Y1082039D01*
X-3203090Y945187D01*
X-3110528Y806658D01*
X-2751935Y448065D01*
X-2613406Y355503D01*
X-2583406Y349536D01*
X-2583406Y200000D01*
X-2581235Y188464D01*
X-3000000Y188464D01*
X-3141190Y161897D01*
X-3270865Y78454D01*
X-3357859Y-48866D01*
X-3388464Y-200000D01*
X-3388464Y-818746D01*
X-3416150Y-824254D01*
X-3448404Y-830669D01*
X-3613211Y-940790D01*
X-4007481Y-1335061D01*
X-4117602Y-1499868D01*
X-4156271Y-1694271D01*
X-4156271Y-1734257D01*
X-4261606Y-1839408D01*
X-4372045Y-2105376D01*
X-4372296Y-2393361D01*
X-4262321Y-2659521D01*
X-4058863Y-2863335D01*
X-3792895Y-2973774D01*
X-3504910Y-2974025D01*
X-3238750Y-2864050D01*
X-3135537Y-2761017D01*
X-3000000Y-2788464D01*
X-1779883Y-2788464D01*
X-3789485Y-4798065D01*
X-4029158Y-5037738D01*
X-4227797Y-5037564D01*
X-4474102Y-5139335D01*
X-4662712Y-5327617D01*
X-4764913Y-5573744D01*
X-4765146Y-5840247D01*
X-4663375Y-6086552D01*
X-4475093Y-6275162D01*
X-4228966Y-6377363D01*
X-3962463Y-6377596D01*
X-3716158Y-6275825D01*
X-3527548Y-6087543D01*
X-3425347Y-5841416D01*
X-3425172Y-5641492D01*
X-3310680Y-5527000D01*
X-968918Y-5527000D01*
X-960605Y-5571179D01*
X-888988Y-5682474D01*
X-779714Y-5757138D01*
X-650000Y-5783406D01*
X650000Y-5783406D01*
X771179Y-5760605D01*
X882474Y-5688988D01*
X957138Y-5579714D01*
X983406Y-5450000D01*
X983406Y-4750000D01*
X960605Y-4628821D01*
X888988Y-4517526D01*
X805894Y-4460750D01*
X5000000Y-4460750D01*
X5000000Y-4751309D01*
X5096673Y-4984698D01*
X5275301Y-5163327D01*
X5508690Y-5260000D01*
X5749250Y-5260000D01*
X5908000Y-5101250D01*
X5908000Y-4302000D01*
X6162000Y-4302000D01*
X6162000Y-5101250D01*
X6320750Y-5260000D01*
X6561310Y-5260000D01*
X6794699Y-5163327D01*
X6973327Y-4984698D01*
X7070000Y-4751309D01*
X7070000Y-4460750D01*
X6911250Y-4302000D01*
X6162000Y-4302000D01*
X5908000Y-4302000D01*
X5158750Y-4302000D01*
X5000000Y-4460750D01*
X805894Y-4460750D01*
X779714Y-4442862D01*
X650000Y-4416594D01*
X-650000Y-4416594D01*
X-771179Y-4439395D01*
X-882474Y-4511012D01*
X-957138Y-4620286D01*
X-967813Y-4673000D01*
X-2456680Y-4673000D01*
X-1135682Y-3352001D01*
X5109974Y-3352001D01*
X5096673Y-3365302D01*
X5000000Y-3598691D01*
X5000000Y-3889250D01*
X5158750Y-4048000D01*
X5908000Y-4048000D01*
X5908000Y-4028000D01*
X6162000Y-4028000D01*
X6162000Y-4048000D01*
X6911250Y-4048000D01*
X7070000Y-3889250D01*
X7070000Y-3725000D01*
X7201594Y-3725000D01*
X7201594Y-4625000D01*
X7224395Y-4746179D01*
X7296012Y-4857474D01*
X7405286Y-4932138D01*
X7508000Y-4952938D01*
X7508000Y-5381082D01*
X7463821Y-5389395D01*
X7352526Y-5461012D01*
X7277862Y-5570286D01*
X7251594Y-5700000D01*
X7251594Y-7000000D01*
X7274395Y-7121179D01*
X7346012Y-7232474D01*
X7455286Y-7307138D01*
X7585000Y-7333406D01*
X8285000Y-7333406D01*
X8406179Y-7310605D01*
X8517474Y-7238988D01*
X8592138Y-7129714D01*
X8618406Y-7000000D01*
X8618406Y-5700000D01*
X8595605Y-5578821D01*
X8523988Y-5467526D01*
X8414714Y-5392862D01*
X8362000Y-5382187D01*
X8362000Y-4953326D01*
X8456179Y-4935605D01*
X8567474Y-4863988D01*
X8642138Y-4754714D01*
X8668406Y-4625000D01*
X8668406Y-3725000D01*
X8645605Y-3603821D01*
X8573988Y-3492526D01*
X8464714Y-3417862D01*
X8335000Y-3391594D01*
X7535000Y-3391594D01*
X7413821Y-3414395D01*
X7302526Y-3486012D01*
X7227862Y-3595286D01*
X7201594Y-3725000D01*
X7070000Y-3725000D01*
X7070000Y-3598691D01*
X6973327Y-3365302D01*
X6960026Y-3352001D01*
X8631994Y-3352001D01*
X8631999Y-3352002D01*
X8795405Y-3319498D01*
X8933934Y-3226936D01*
X11146222Y-1014647D01*
X11145752Y-1552603D01*
X11362543Y-2077275D01*
X11763614Y-2479047D01*
X12036805Y-2592486D01*
X12019725Y-2599543D01*
X11617953Y-3000614D01*
X11400248Y-3524907D01*
X11399752Y-4092603D01*
X11616543Y-4617275D01*
X12017614Y-5019047D01*
X12541907Y-5236752D01*
X13109603Y-5237248D01*
X13634275Y-5020457D01*
X14036047Y-4619386D01*
X14253752Y-4095093D01*
X14254248Y-3527397D01*
X14037457Y-3002725D01*
X13636386Y-2600953D01*
X13363195Y-2487514D01*
X13380275Y-2480457D01*
X13782047Y-2079386D01*
X13999752Y-1555093D01*
X14000248Y-987397D01*
X13783457Y-462725D01*
X13382386Y-60953D01*
X13362569Y-52724D01*
X13634275Y59543D01*
X14036047Y460614D01*
X14253752Y984907D01*
X14254248Y1552603D01*
X14037457Y2077275D01*
X13636386Y2479047D01*
X13424245Y2567135D01*
X13827799Y2969985D01*
X14053743Y3514118D01*
X14054257Y4103297D01*
X13829263Y4647823D01*
X13413015Y5064799D01*
X12868882Y5290743D01*
X12279703Y5291257D01*
X11947448Y5153972D01*
X11347210Y5754210D01*
X11182403Y5864331D01*
X10988000Y5903000D01*
X9256080Y5903000D01*
X9183454Y6015865D01*
X9056134Y6102859D01*
X8905000Y6133464D01*
X7934956Y6133464D01*
X6887038Y7181382D01*
X6887038Y7689790D01*
X6979410Y7734160D01*
X7081483Y7849743D01*
X8081483Y9581793D01*
X8129070Y9717350D01*
X8121644Y9871374D01*
X8054878Y10010372D01*
X7939295Y10112445D01*
X6207245Y11112445D01*
X6071688Y11160032D01*
X5917664Y11152606D01*
X5778666Y11085840D01*
X5676593Y10970257D01*
X5625572Y10881886D01*
X5462272Y11045186D01*
X5483407Y11081793D01*
X5530994Y11217350D01*
X5523568Y11371374D01*
X5456802Y11510372D01*
X5341219Y11612445D01*
X3609169Y12612445D01*
X3473612Y12660032D01*
X3319588Y12652606D01*
X3180590Y12585840D01*
X3078517Y12470257D01*
X2078517Y10738207D01*
X2030930Y10602650D01*
X2038356Y10448626D01*
X2105122Y10309628D01*
X2220705Y10207555D01*
X3952755Y9207555D01*
X4088312Y9159968D01*
X4242336Y9167394D01*
X4381334Y9234160D01*
X4483407Y9349743D01*
X4936352Y10134266D01*
X5099652Y9970966D01*
X4676593Y9238207D01*
X4629006Y9102650D01*
X4636432Y8948626D01*
X4703198Y8809628D01*
X4818781Y8707555D01*
X5871038Y8100034D01*
X5871038Y6970962D01*
X5909707Y6776559D01*
X6019828Y6611752D01*
X7216536Y5415044D01*
X7216536Y5045000D01*
X7243103Y4903810D01*
X7326546Y4774135D01*
X7453866Y4687141D01*
X7605000Y4656536D01*
X8905000Y4656536D01*
X9046190Y4683103D01*
X9175865Y4766546D01*
X9258168Y4887000D01*
X10777580Y4887000D01*
X11229113Y4435467D01*
X11092257Y4105882D01*
X11091743Y3516703D01*
X11316737Y2972177D01*
X11732985Y2555201D01*
X11988369Y2449156D01*
X11617953Y2079386D01*
X11400248Y1555093D01*
X11399752Y987397D01*
X11557866Y604735D01*
X8455129Y-2498001D01*
X7718406Y-2498001D01*
X7718406Y-1725000D01*
X7695605Y-1603821D01*
X7623988Y-1492526D01*
X7514714Y-1417862D01*
X7427000Y-1400099D01*
X7427000Y-250000D01*
X7394497Y-86594D01*
X7301935Y51935D01*
X7301932Y51937D01*
X6348406Y1005464D01*
X6348406Y1990000D01*
X6325605Y2111179D01*
X6253988Y2222474D01*
X6144714Y2297138D01*
X6015000Y2323406D01*
X5415000Y2323406D01*
X5293821Y2300605D01*
X5182526Y2228988D01*
X5120565Y2138305D01*
X4045870Y3213000D01*
X5081594Y3213000D01*
X5081594Y3090000D01*
X5104395Y2968821D01*
X5176012Y2857526D01*
X5285286Y2782862D01*
X5415000Y2756594D01*
X6015000Y2756594D01*
X6136179Y2779395D01*
X6247474Y2851012D01*
X6322138Y2960286D01*
X6348406Y3090000D01*
X6348406Y3213000D01*
X7271594Y3213000D01*
X7271594Y3145000D01*
X7294395Y3023821D01*
X7366012Y2912526D01*
X7475286Y2837862D01*
X7605000Y2811594D01*
X8905000Y2811594D01*
X9026179Y2834395D01*
X9137474Y2906012D01*
X9212138Y3015286D01*
X9238406Y3145000D01*
X9238406Y3845000D01*
X9215605Y3966179D01*
X9143988Y4077474D01*
X9034714Y4152138D01*
X8905000Y4178406D01*
X7605000Y4178406D01*
X7483821Y4155605D01*
X7372526Y4083988D01*
X7360919Y4067000D01*
X6348406Y4067000D01*
X6348406Y4190000D01*
X6325605Y4311179D01*
X6253988Y4422474D01*
X6144714Y4497138D01*
X6015000Y4523406D01*
X5415000Y4523406D01*
X5293821Y4500605D01*
X5182526Y4428988D01*
X5107862Y4319714D01*
X5081594Y4190000D01*
X5081594Y4067000D01*
X4133406Y4067000D01*
X4133406Y4165000D01*
X4110605Y4286179D01*
X4038988Y4397474D01*
X3929714Y4472138D01*
X3800000Y4498406D01*
X1800000Y4498406D01*
X1678821Y4475605D01*
X1567526Y4403988D01*
X1492862Y4294714D01*
X1466594Y4165000D01*
X1466594Y3465000D01*
X1473744Y3427000D01*
X-1474289Y3427000D01*
X-1466594Y3465000D01*
X-1466594Y4165000D01*
X-1489395Y4286179D01*
X-1561012Y4397474D01*
X-1670286Y4472138D01*
X-1800000Y4498406D01*
X-3800000Y4498406D01*
X-3921179Y4475605D01*
X-4032474Y4403988D01*
X-4107138Y4294714D01*
X-4133406Y4165000D01*
X-4133406Y3917000D01*
X-4746082Y3917000D01*
X-4754395Y3961179D01*
X-4826012Y4072474D01*
X-4935286Y4147138D01*
X-5065000Y4173406D01*
X-6365000Y4173406D01*
X-6486179Y4150605D01*
X-6597474Y4078988D01*
X-6672138Y3969714D01*
X-6698406Y3840000D01*
X-11145973Y3840000D01*
X-11145752Y4092603D01*
X-11362543Y4617275D01*
X-11763614Y5019047D01*
X-12287907Y5236752D01*
X-12855603Y5237248D01*
X-13380275Y5020457D01*
X-13782047Y4619386D01*
X-13999752Y4095093D01*
X-14000248Y3527397D01*
X-13783457Y3002725D01*
X-13382386Y2600953D01*
X-13362569Y2592724D01*
X-13634275Y2480457D01*
X-14036047Y2079386D01*
X-14253752Y1555093D01*
X-14254248Y987397D01*
X-14037457Y462725D01*
X-13636386Y60953D01*
X-13363195Y-52486D01*
X-13380275Y-59543D01*
X-13782047Y-460614D01*
X-13999752Y-984907D01*
X-14000248Y-1552603D01*
X-13783457Y-2077275D01*
X-13614117Y-2246911D01*
X-13761359Y-2307901D01*
X-13872263Y-2585132D01*
X-12827000Y-3630395D01*
X-11781737Y-2585132D01*
X-11815400Y-2500983D01*
X-11765725Y-2480457D01*
X-11363953Y-2079386D01*
X-11146248Y-1555093D01*
X-11145776Y-1015094D01*
X-11069902Y-1090968D01*
X-11069902Y-3058589D01*
X-11069903Y-3058594D01*
X-11037399Y-3222000D01*
X-10944837Y-3360529D01*
X-6503433Y-7801932D01*
X-6503431Y-7801935D01*
X-6364902Y-7894497D01*
X-6201496Y-7927001D01*
X-6201491Y-7927000D01*
X-6030870Y-7927000D01*
X-6301935Y-8198065D01*
X-6301937Y-8198068D01*
X-6434027Y-8330158D01*
X-6632667Y-8329984D01*
X-6878972Y-8431755D01*
X-7067582Y-8620037D01*
X-7169783Y-8866164D01*
X-7170016Y-9132667D01*
X-7068245Y-9378972D01*
X-6879963Y-9567582D01*
X-6633836Y-9669783D01*
X-6367333Y-9670016D01*
X-6121028Y-9568245D01*
X-5932418Y-9379963D01*
X-5830217Y-9133836D01*
X-5830042Y-8933911D01*
X-5698068Y-8801937D01*
X-5698065Y-8801935D01*
X-4823131Y-7927000D01*
X-2250005Y-7927000D01*
X-2250000Y-7927001D01*
X-2086594Y-7894497D01*
X-1948065Y-7801935D01*
X-983406Y-6837276D01*
X-983406Y-7350000D01*
X-960605Y-7471179D01*
X-888988Y-7582474D01*
X-779714Y-7657138D01*
X-650000Y-7683406D01*
X-427000Y-7683406D01*
X-427000Y-8720600D01*
X-2000000Y-8720600D01*
X-2105136Y-8741136D01*
X-2197566Y-8802434D01*
X-3197566Y-9802434D01*
X-3214641Y-9821132D01*
X-6269148Y-13486541D01*
X-13180648Y-9499137D01*
X-14812100Y-6658536D01*
X-14812100Y-5034868D01*
X-13872263Y-5034868D01*
X-13761359Y-5312099D01*
X-13115407Y-5555323D01*
X-12425547Y-5532836D01*
X-11892641Y-5312099D01*
X-11781737Y-5034868D01*
X-12827000Y-3989605D01*
X-13872263Y-5034868D01*
X-14812100Y-5034868D01*
X-14812100Y-3521593D01*
X-14572323Y-3521593D01*
X-14549836Y-4211453D01*
X-14329099Y-4744359D01*
X-14051868Y-4855263D01*
X-13006605Y-3810000D01*
X-12647395Y-3810000D01*
X-11602132Y-4855263D01*
X-11324901Y-4744359D01*
X-11081677Y-4098407D01*
X-11104164Y-3408547D01*
X-11324901Y-2875641D01*
X-11602132Y-2764737D01*
X-12647395Y-3810000D01*
X-13006605Y-3810000D01*
X-14051868Y-2764737D01*
X-14329099Y-2875641D01*
X-14572323Y-3521593D01*
X-14812100Y-3521593D01*
X-14812100Y6658536D01*
X-13843489Y8345033D01*
X-7652115Y8345033D01*
X-7231835Y7617088D01*
X-7031419Y7463303D01*
X-6787408Y7397920D01*
X-6536951Y7430893D01*
X-6318177Y7557203D01*
X-5809005Y7851173D01*
X-5778505Y7965000D01*
X1411536Y7965000D01*
X1411536Y7265000D01*
X1438103Y7123810D01*
X1521546Y6994135D01*
X1648866Y6907141D01*
X1800000Y6876536D01*
X3800000Y6876536D01*
X3941190Y6903103D01*
X4070865Y6986546D01*
X4157859Y7113866D01*
X4188464Y7265000D01*
X4188464Y7965000D01*
X4161897Y8106190D01*
X4078454Y8235865D01*
X3951134Y8322859D01*
X3800000Y8353464D01*
X1800000Y8353464D01*
X1658810Y8326897D01*
X1529135Y8243454D01*
X1442141Y8116134D01*
X1411536Y7965000D01*
X-5778505Y7965000D01*
X-5750898Y8068030D01*
X-6425523Y9236515D01*
X-7594008Y8561890D01*
X-7652115Y8345033D01*
X-13843489Y8345033D01*
X-13180648Y9499137D01*
X-12627311Y9818370D01*
X-8391117Y9818370D01*
X-8358144Y9567912D01*
X-7937865Y8839967D01*
X-7721008Y8781860D01*
X-6713552Y9363515D01*
X-6205553Y9363515D01*
X-5530928Y8195030D01*
X-5314071Y8136923D01*
X-4804899Y8430894D01*
X-4586125Y8557203D01*
X-4432341Y8757619D01*
X-4380988Y8949274D01*
X-4189332Y8897920D01*
X-3938875Y8930893D01*
X-3720101Y9057203D01*
X-3210929Y9351173D01*
X-3152822Y9568030D01*
X-3827447Y10736515D01*
X-4995932Y10061890D01*
X-5004625Y10029447D01*
X-5037068Y10038140D01*
X-6205553Y9363515D01*
X-6713552Y9363515D01*
X-6552523Y9456485D01*
X-7227148Y10624970D01*
X-7444005Y10683077D01*
X-7953177Y10389106D01*
X-8171951Y10262797D01*
X-8325735Y10062381D01*
X-8391117Y9818370D01*
X-12627311Y9818370D01*
X-11009071Y10751970D01*
X-7007178Y10751970D01*
X-6332553Y9583485D01*
X-5164068Y10258110D01*
X-5155375Y10290553D01*
X-5122932Y10281860D01*
X-4115476Y10863515D01*
X-3607477Y10863515D01*
X-2932852Y9695030D01*
X-2715995Y9636923D01*
X-2206823Y9930894D01*
X-1988049Y10057203D01*
X-1834265Y10257619D01*
X-1768883Y10501630D01*
X-1801856Y10752088D01*
X-2222135Y11480033D01*
X-2438992Y11538140D01*
X-3607477Y10863515D01*
X-4115476Y10863515D01*
X-3954447Y10956485D01*
X-4629072Y12124970D01*
X-4845929Y12183077D01*
X-5355101Y11889106D01*
X-5573875Y11762797D01*
X-5727659Y11562381D01*
X-5779012Y11370726D01*
X-5970668Y11422080D01*
X-6221125Y11389107D01*
X-6439899Y11262797D01*
X-6949071Y10968827D01*
X-7007178Y10751970D01*
X-11009071Y10751970D01*
X-8409071Y12251970D01*
X-4409102Y12251970D01*
X-3734477Y11083485D01*
X-2565992Y11758110D01*
X-2507885Y11974967D01*
X-2926483Y12700000D01*
X-2345398Y12700000D01*
X-2166865Y11802455D01*
X-1658447Y11041553D01*
X-897545Y10533135D01*
X0Y10354602D01*
X897545Y10533135D01*
X1658447Y11041553D01*
X2166865Y11802455D01*
X2345398Y12700000D01*
X2166865Y13597545D01*
X1658447Y14358447D01*
X897545Y14866865D01*
X0Y15045398D01*
X-897545Y14866865D01*
X-1658447Y14358447D01*
X-2166865Y13597545D01*
X-2345398Y12700000D01*
X-2926483Y12700000D01*
X-2928165Y12702912D01*
X-3128581Y12856697D01*
X-3372592Y12922080D01*
X-3623049Y12889107D01*
X-3841823Y12762797D01*
X-4350995Y12468827D01*
X-4409102Y12251970D01*
X-8409071Y12251970D01*
X-1640179Y16157100D01*
X1640179Y16157100D01*
X13180648Y9499137D01*
G36*
X2906131Y-10085737D02*
X5911892Y-13692650D01*
X1640179Y-16157100D01*
X-1640179Y-16157100D01*
X-5911892Y-13692650D01*
X-2906131Y-10085737D01*
X-1947394Y-9127000D01*
X1947394Y-9127000D01*
X2906131Y-10085737D01*
X2906131Y-10085737D01*
G37*
X2906131Y-10085737D02*
X5911892Y-13692650D01*
X1640179Y-16157100D01*
X-1640179Y-16157100D01*
X-5911892Y-13692650D01*
X-2906131Y-10085737D01*
X-1947394Y-9127000D01*
X1947394Y-9127000D01*
X2906131Y-10085737D01*
M02*
